<?xml version="1.0" encoding="utf-8"?>
<!DOCTYPE svg PUBLIC "-//W3C//DTD SVG 1.0//EN" "http://www.w3.org/TR/2001/REC-SVG-20010904/DTD/svg10.dtd">
<svg version="1.0" xmlns="http://www.w3.org/2000/svg" width="512px" height="659px" viewBox="0 0 512 659" preserveAspectRatio="xMidYMid meet">
 <g fill="#ffffff">
  <path d="M0 329.50 l0 -329.50 256 0 256 0 0 329.50 0 329.50 -256 0 -256 0 0 -329.50z m409.50 -54.50 l0 -23.50 -63.50 0 -63.50 0 0 23.50 0 23.50 63.50 0 63.50 0 0 -23.50z m13 -133 l0 -68.50 -162 0 -162 0 0 68.50 0 68.50 162 0 162 0 0 -68.50z"/>
  <path d="M297.15 266.15 c-0.45 -0.15 -0.65 -1.65 -0.65 -4.95 0 -4.45 0.05 -4.70 1.25 -5.50 1 -0.65 1.90 -0.75 3.90 -0.50 1.45 0.20 7.15 0.35 12.75 0.35 l10.10 0 0 4.70 c0 5.85 -0.30 6.25 -4.75 6.25 -4 0 -4.75 -0.65 -4.75 -4.05 0 -2.30 -0.10 -2.45 -1.25 -2.45 -1.35 0 -1.45 0.25 -1.25 4.15 l0.10 2.35 -2.55 0 -2.55 0 0 -3.25 c0 -3.05 -0.05 -3.25 -1.15 -3.25 -1 0 -1.10 0.20 -0.95 2.20 0.30 3.65 -0.35 4.30 -4.30 4.25 -1.85 0 -3.65 -0.15 -3.95 -0.30z"/>
  <path d="M325.50 261 l0 -5.50 3.70 0 c4.80 0 5.90 0.80 6.35 4.55 l0.30 2.70 0.10 -3.60 0.05 -3.65 3.95 0 3.95 0 0 5.50 0 5.55 -4.05 -0.15 -4.10 -0.15 -0.30 -1.50 c-0.20 -0.80 -0.35 -1.10 -0.40 -0.65 -0.10 1.60 -2.05 2.40 -5.90 2.40 l-3.65 0 0 -5.50z"/>
  <path d="M344.50 261 l0 -5.45 5 0 5 0 0 5.45 0 5.45 -5 0 -5 0 0 -5.45z"/>
  <path d="M357.35 266.15 c-0.20 -0.15 -0.35 -1.65 -0.35 -3.25 0 -2.55 -0.10 -2.90 -1 -2.90 -0.85 0 -1 -0.35 -1 -2.25 l0 -2.25 4.75 0 4.75 0 0 2.25 c0 2.05 -0.10 2.25 -1.25 2.25 -1.20 0 -1.25 0.10 -1.25 3.25 l0 3.25 -2.15 0 c-1.20 0 -2.35 -0.15 -2.50 -0.35z"/>
  <path d="M370.20 265.80 c-0.15 -0.35 -0.15 -2.75 -0.10 -5.35 l0.15 -4.70 5.15 -0.10 5.10 -0.15 0 5.50 0 5.45 -5.05 0 c-3.60 0 -5.05 -0.20 -5.25 -0.65z"/>
  <path d="M382.10 265.50 c-0.90 -0.85 -1.10 -1.60 -1.10 -4.25 0 -3.90 0.25 -4.60 2.05 -5.50 2.80 -1.50 7 -0.75 8.45 1.50 0.55 0.85 1 1.20 1 0.90 0 -0.45 0.85 -0.65 2.50 -0.65 l2.50 0 0 4.50 0 4.50 -2.50 0 -2.50 0 -0.05 -2.35 c-0.05 -2.35 -0.05 -2.35 -0.45 -0.65 -0.60 2.40 -1.65 3 -5.50 3 -2.65 0 -3.55 -0.20 -4.40 -1z"/>
  <path d="M118.75 204.90 c-0.10 -0.35 -0.80 -2.45 -1.50 -4.65 -0.75 -2.20 -1.65 -4.35 -2.05 -4.85 -0.45 -0.45 -0.70 -1.50 -0.60 -2.50 l0.15 -1.65 10.25 0 10.25 0 0.15 1.75 c0.10 1.10 -0.10 1.90 -0.60 2.25 -0.40 0.30 -1.45 2.75 -2.30 5.40 l-1.55 4.85 -2.40 0 c-2.25 0 -2.45 -0.10 -2.80 -1.35 l-0.35 -1.40 -0.50 1.40 c-0.45 1.25 -0.70 1.35 -3.20 1.35 -1.75 0 -2.80 -0.25 -2.95 -0.60z"/>
  <path d="M136.50 204.50 c-1.25 -1.25 -1.70 -3.05 -1.35 -5.65 0.40 -3.10 1.65 -3.85 6.35 -3.85 5.40 0 6.25 0.70 6.25 5.25 0 4.55 -0.85 5.25 -6.30 5.25 -3.25 0 -4.10 -0.15 -4.95 -1z"/>
  <path d="M148.50 203.75 c0 -1.10 0.30 -1.90 0.75 -2.05 0.85 -0.35 1.05 -2.20 0.25 -2.20 -0.25 0 -0.50 -0.90 -0.50 -1.95 0 -1.95 0.05 -2 2.15 -2.30 1.15 -0.15 3.55 -0.25 5.35 -0.15 3 0.15 3.25 0.25 3.40 1.35 0.35 2.30 -0.30 3.55 -1.90 3.55 -1.60 0 -2.40 0.80 -1.55 1.65 0.30 0.30 0.55 1.30 0.55 2.20 l0 1.65 -4.25 0 -4.25 0 0 -1.75z"/>
  <path d="M160.50 203.80 c0 -0.95 0.25 -1.90 0.55 -2.10 0.40 -0.25 0.50 -1.75 0.25 -5 -0.20 -3 -0.15 -4.75 0.20 -4.95 0.30 -0.20 1.75 -0.45 3.25 -0.60 l2.75 -0.30 0 5.30 c0 4.20 0.15 5.30 0.75 5.55 0.45 0.15 0.75 0.95 0.75 2.05 l0 1.75 -4.25 0 -4.25 0 0 -1.70z"/>
  <path d="M170.80 204.70 c-0.60 -0.55 -0.80 -1.75 -0.80 -4.40 0 -4.15 0.75 -5.30 3.40 -5.30 1.45 0 1.60 -0.15 1.60 -1.45 0 -1.85 0.35 -2.05 3.75 -2.40 l2.75 -0.30 0 5.30 c0 4.20 0.15 5.30 0.75 5.55 0.45 0.15 0.75 0.95 0.75 2.05 l0 1.75 -5.70 0 c-4.55 0 -5.90 -0.15 -6.50 -0.80z"/>
  <path d="M196.15 204.30 c-1.25 -1.05 -1.40 -1.60 -1.55 -4.85 -0.35 -6.75 1.35 -8.45 8.50 -8.45 4.20 0 4.40 0.05 4.70 1.15 0.15 0.65 0.20 2.05 0.10 3.15 -0.15 1.85 -0.25 1.95 -2 2.10 -1.45 0.10 -1.95 -0.05 -2.40 -0.85 -0.75 -1.45 -1.35 -1.30 -2.25 0.40 -0.95 1.85 -0.30 4.05 1.25 4.05 0.55 0 1 -0.20 1 -0.50 0 -0.25 1 -0.50 2.25 -0.50 2.20 0 2.25 0.05 2.25 1.65 0 3 -1.50 3.85 -6.70 3.85 -3.25 0 -3.95 -0.15 -5.15 -1.20z"/>
  <path d="M209 203.80 c0 -0.95 0.25 -1.90 0.50 -2.05 0.30 -0.15 0.50 -2.50 0.50 -5.20 l0 -4.90 1.55 -0.35 c0.85 -0.15 2.20 -0.30 3 -0.30 l1.45 0 0 5.20 c0 4.15 0.15 5.25 0.75 5.50 0.45 0.15 0.75 0.95 0.75 2.05 l0 1.75 -4.25 0 -4.25 0 0 -1.70z"/>
  <path d="M218.25 204.50 c-0.40 -1.30 0.25 -8.10 0.90 -8.85 0.60 -0.80 7.50 -0.90 8.90 -0.15 0.75 0.45 0.95 1.10 0.95 3.25 0 1.50 0.25 2.75 0.50 2.75 0.30 0 0.50 0.90 0.50 2 l0 2 -5.70 0 c-5.30 0 -5.75 -0.10 -6.05 -1z"/>
  <path d="M231.90 205.15 c-0.75 -0.20 -0.90 -0.85 -0.90 -4.40 0 -5.55 0.25 -5.75 6.05 -5.75 l4.45 0 0 4.75 c0 4.15 -0.10 4.80 -0.95 5.25 -0.95 0.50 -6.95 0.60 -8.65 0.15z"/>
  <path d="M242.80 205.15 c-0.50 -0.50 0.25 -8.75 0.85 -9.50 0.30 -0.45 1.95 -0.65 4.90 -0.65 l4.45 0 0 4.95 c0 4.05 -0.15 5 -0.80 5.25 -1.10 0.40 -8.95 0.40 -9.40 -0.05z"/>
  <path d="M261.50 203.75 c0 -1.10 0.30 -1.90 0.75 -2.05 1.10 -0.45 1.05 -6 -0.05 -6.60 -0.50 -0.30 -0.70 -1 -0.60 -2.15 l0.15 -1.70 4.25 0 4.25 0 0.15 1.90 c0.10 1.40 0 1.85 -0.60 1.85 -1.15 0 -1.15 6.25 -0.05 6.70 0.45 0.15 0.75 0.95 0.75 2.05 l0 1.75 -4.50 0 -4.50 0 0 -1.75z"/>
  <path d="M274 203.50 c0 -1.10 0.25 -2 0.50 -2 0.30 0 0.50 -0.80 0.50 -1.75 0 -1.65 -0.10 -1.75 -1.75 -1.75 -2 0 -2.40 -0.90 -2.15 -4.55 l0.15 -2.20 7 0 7 0 0 3.25 0 3.25 -2.15 0.15 c-2.15 0.15 -2.15 0.15 -1.80 1.75 0.15 0.90 0.50 1.70 0.75 1.75 0.25 0.10 0.45 1.05 0.45 2.15 l0 1.95 -4.25 0 -4.25 0 0 -2z"/>
  <path d="M293.50 203.80 c0 -0.95 0.25 -1.90 0.50 -2.05 0.70 -0.40 0.65 -6.75 -0.05 -6.75 -0.30 0 -0.45 -0.80 -0.35 -1.85 l0.15 -1.90 6.25 0 6.25 0 0.15 3.15 c0.15 2.85 0.05 3.10 -0.90 3.10 -0.65 0 -1 0.35 -1 1 0 0.65 0.35 1 1 1 0.95 0 1.05 0.25 0.90 2.90 l-0.15 2.85 -6.35 0.15 -6.40 0.15 0 -1.75z"/>
  <path d="M308.80 204.75 c-0.95 -0.95 -1.50 -4.65 -1.05 -6.80 0.45 -2.05 1.50 -2.90 3.65 -2.95 1.50 0 1.60 -0.10 1.60 -1.70 0 -1.50 0.20 -1.70 1.55 -2 0.85 -0.15 2.35 -0.30 3.25 -0.30 l1.70 0 0 5.20 c0 4.15 0.15 5.25 0.75 5.50 0.45 0.15 0.75 0.95 0.75 2.05 l0 1.75 -5.70 0 c-4.45 0 -5.90 -0.15 -6.50 -0.75z"/>
  <path d="M323.10 205.10 c-0.70 -0.50 -1.95 -8.90 -1.40 -9.45 0.20 -0.25 3.05 -0.45 6.35 -0.55 l5.95 -0.10 0 3.20 c0 1.80 0.25 3.40 0.50 3.55 0.30 0.15 0.50 1.10 0.50 2.05 l0 1.70 -5.60 0 c-3.10 0 -5.95 -0.20 -6.30 -0.40z"/>
  <path d="M337 204.50 c-0.80 -0.80 -1 -1.65 -1 -4.45 0 -4.65 0.55 -5.05 6.90 -5.05 l4.65 0 -0.35 4.40 c-0.45 5.70 -0.80 6.10 -5.55 6.10 -3 0 -3.85 -0.20 -4.65 -1z m6 -4.70 c-0.70 -0.70 -1.20 0 -0.80 1.05 0.30 0.75 0.40 0.75 0.80 0.15 0.30 -0.45 0.25 -0.95 0 -1.20z"/>
  <path d="M348.85 205.15 c-0.20 -0.15 -0.35 -2.30 -0.35 -4.70 0 -3.85 0.10 -4.50 0.95 -4.95 1.40 -0.70 7.70 -0.65 8.75 0.15 0.80 0.60 1.75 5.10 1.80 8.50 l0 1.35 -5.40 0 c-3 0 -5.60 -0.15 -5.75 -0.35z"/>
  <path d="M362.05 203.90 c-0.25 -0.90 -0.65 -3.15 -0.85 -5 -0.45 -4.65 0.35 -5.90 3.75 -5.90 2 0 2.50 0.15 2.70 1 0.15 0.60 0.70 1 1.30 1 0.90 0 1.05 0.30 1.05 1.95 0 1.65 -0.20 2 -1.10 2.15 -0.65 0.10 -1.20 0.55 -1.30 1.05 -0.15 0.65 0.15 0.85 1.40 0.85 1.50 0 1.55 0.05 1.40 2.15 l-0.15 2.10 -3.85 0.15 -3.80 0.15 -0.55 -1.65z"/>
  <path d="M371.50 203.75 c0 -1.10 0.30 -1.90 0.75 -2.05 0.85 -0.35 1 -2 0.25 -2.45 -0.65 -0.40 -0.65 -3.75 -0.05 -3.75 0.30 0 0.55 -0.95 0.65 -2.10 l0.15 -2.15 2.50 0 2.50 0 0.45 5.15 c0.25 2.80 0.65 5.10 0.90 5.10 0.20 0 0.40 0.90 0.40 2 l0 2 -4.25 0 -4.25 0 0 -1.75z"/>
  <path d="M382 204.50 c-0.80 -0.80 -1 -1.65 -1 -4.25 0 -4.65 0.70 -5.25 6.15 -5.25 2.65 0 4.50 0.25 5.05 0.65 1.05 0.75 1.60 4.35 1.10 7 -0.40 2.25 -1.85 2.85 -6.55 2.85 -3.10 0 -3.95 -0.20 -4.75 -1z"/>
  <path d="M394 203.75 c0 -1.10 0.30 -1.90 0.75 -2.05 0.85 -0.35 1 -2 0.25 -2.45 -0.25 -0.15 -0.50 -1.05 -0.50 -2 0 -1.60 0.10 -1.70 2.15 -2 1.15 -0.15 3.90 -0.25 6.10 -0.15 l4 0.15 0.15 3.15 c0.10 2.30 0.35 3.10 0.85 3.10 0.55 0 0.75 0.60 0.75 2 l0 2 -7.25 0 -7.25 0 0 -1.75z"/>
  <path d="M184.10 199.65 l0.15 -2.40 4.25 0 4.25 0 0.15 2.40 0.15 2.35 -4.55 0 -4.55 0 0.15 -2.35z"/>
  <path d="M152.65 171.40 c-3.25 -3.05 -8.65 -8.25 -12 -11.55 l-6.10 -6 -2.75 5.55 c-1.45 3.05 -2.80 5.80 -2.90 6.15 -0.15 0.40 -1 0.50 -3.10 0.25 l-2.90 -0.40 0.25 -2.05 c0.10 -1.15 1.40 -5 2.80 -8.60 l2.55 -6.45 -5.50 -5.20 c-4.95 -4.70 -5.50 -5.35 -5.50 -6.95 0 -1.30 0.25 -1.80 1 -2 0.55 -0.15 1 -0.55 1 -0.90 0 -0.35 5.50 -6 12.20 -12.60 l12.25 -11.90 4.80 -12.25 c2.65 -6.75 5.10 -13.05 5.45 -14 0.70 -1.75 0.70 -1.75 3.80 -1.75 l3.10 0 2.65 6.75 c6.60 17 6.45 16.70 7.60 17 0.60 0.15 8.10 6.85 16.65 14.95 14.70 13.95 15.50 14.80 15.50 16.50 0 1.65 -0.50 2.30 -7.35 8.80 l-7.35 7.05 2.35 5.85 c1.30 3.20 2.35 6.65 2.35 7.60 0 1.65 -0.10 1.75 -1.75 1.75 -0.95 0 -1.75 -0.20 -1.75 -0.50 0 -0.25 -0.60 -0.50 -1.40 -0.50 -1.25 0 -1.60 -0.45 -3.50 -4.30 l-2.15 -4.35 -2.35 2.25 c-1.30 1.25 -5.95 5.65 -10.35 9.85 -10.35 9.75 -9.45 9.70 -17.60 1.95z m20.60 -13.05 l6.95 -6.65 -3.90 -6.50 c-5 -8.35 -9.90 -14.50 -14.10 -17.65 -3.85 -2.95 -4.50 -2.95 -8.30 -0.20 -4.20 3.05 -10.10 10.60 -15.85 20.20 l-1.05 1.85 8.10 7.70 c4.50 4.25 9.60 9.10 11.40 10.75 l3.25 3.05 3.25 -2.95 c1.80 -1.60 6.40 -5.90 10.25 -9.60z m21.50 -20.50 c2.10 -1.85 2.15 -2.45 0.40 -3.85 -0.75 -0.60 -5.80 -5.35 -11.20 -10.55 l-9.85 -9.45 2 5.15 c2.55 6.60 8.80 22.60 9.70 24.80 l0.70 1.70 3.25 -3.15 c1.80 -1.70 4.05 -3.80 5 -4.65z m-59.75 -6.10 c2.25 -5.75 4.30 -10.90 4.60 -11.50 0.60 -1.05 -8.10 6.90 -13.55 12.45 l-3.20 3.25 3.70 3.50 c2.05 1.90 3.85 3.30 4.05 3.15 0.20 -0.20 2.20 -5.05 4.40 -10.85z"/>
  <path d="M376.95 171.40 c0 -1.75 -0.10 -1.95 -0.45 -1.05 -0.55 1.40 -2 1.80 -4.95 1.40 l-2.40 -0.30 -0.35 -3.95 c-0.45 -5.45 -0.40 -5.50 4 -5.50 3.35 0 3.70 0.10 3.70 1 0 0.95 0.35 1 5.65 1 3.35 0 5.85 -0.20 6.20 -0.55 0.30 -0.30 1.40 -0.45 2.45 -0.35 1.70 0.15 1.95 0.30 2.10 1.55 0.15 1.25 0.35 1.35 2.40 1.35 1.90 0 2.20 0.15 2.20 1.05 0 0.60 0.40 1.15 1 1.30 0.75 0.20 1 0.70 1 1.95 0 1.65 -0.05 1.70 -2.05 1.70 -1.10 0 -2.45 -0.25 -3 -0.50 -0.60 -0.35 -0.95 -0.35 -0.95 -0.05 0 0.30 -1.85 0.50 -4.50 0.50 -4.35 -0.05 -4.50 -0.10 -4.50 -1.20 0 -0.75 -0.35 -1.25 -1.05 -1.40 -0.85 -0.25 -1.20 0.15 -1.95 1.95 -0.90 2 -1.10 2.20 -2.75 2.20 -1.70 0 -1.75 -0.05 -1.80 -2.10z"/>
  <path d="M199.05 170.40 c0 -0.90 0.65 -3.20 1.40 -5.15 1.30 -3.35 1.40 -3.50 3.15 -3.65 l1.80 -0.15 1.35 3.50 c0.75 2 1.25 4.20 1.15 5.15 -0.15 1.50 -0.35 1.65 -1.90 1.80 -1.20 0.15 -1.90 -0.10 -2.35 -0.70 -0.60 -0.80 -0.65 -0.80 -0.65 -0.05 0 0.65 -0.45 0.85 -2 0.85 -1.95 0 -2 -0.05 -1.95 -1.60z"/>
  <path d="M211.85 171.65 c-0.20 -0.15 -0.35 -1.95 -0.35 -3.90 l0 -3.60 4.30 -0.35 c3.10 -0.20 4.55 -0.15 5.05 0.30 0.45 0.35 1.55 0.55 2.50 0.45 2 -0.15 2.65 0.45 2.65 2.60 0 0.85 0.25 1.35 0.75 1.35 0.50 0 0.75 0.50 0.75 1.70 l0 1.70 -7.65 0.05 c-4.25 0.05 -7.85 -0.10 -8 -0.30z"/>
  <path d="M228 168 l0 -4 4.95 0 c4.80 0 5 -0.05 5.15 -1.10 0.10 -0.95 0.50 -1.20 2.05 -1.30 1.70 -0.15 1.85 -0.05 1.85 1.10 0 1.40 0.60 1.55 5.65 1.30 l2.35 -0.10 0 1.75 c0 1 -0.30 1.90 -0.60 2 -0.40 0.20 -0.20 0.40 0.50 0.60 0.85 0.30 1.10 0.75 1.10 2 l0 1.60 -11.50 0.05 -11.50 0.05 0 -3.95z"/>
  <path d="M251.80 168.95 c-0.55 -5.25 -0.70 -4.95 2.70 -4.95 l3 0 0 1.70 c0 1.05 -0.30 1.80 -0.75 2 -0.50 0.15 -0.75 0.95 -0.75 2.30 0 2 0 2 -1.95 2 l-1.90 0 -0.35 -3.05z"/>
  <path d="M261.05 171.15 c-0.95 -0.60 -1.10 -1.15 -0.95 -3.30 0.15 -2.55 0.20 -2.60 1.80 -2.75 0.85 -0.10 1.60 -0.35 1.60 -0.65 0 -0.25 0.75 -0.45 1.70 -0.45 0.95 0 1.90 -0.20 2.05 -0.50 0.35 -0.55 2.85 -0.65 4.65 -0.20 0.85 0.25 1.10 0.70 1.10 2 0 0.95 -0.20 1.70 -0.50 1.70 -0.25 0 -0.50 1.10 -0.50 2.45 l0 2.45 -4.95 0 c-3.60 0 -5.20 -0.20 -6 -0.75z"/>
  <path d="M276 170.40 c0 -0.90 0.30 -2.20 0.65 -2.90 0.35 -0.70 0.95 -2.20 1.30 -3.35 0.70 -2.10 0.80 -2.15 2.85 -2.15 l2.10 0 1.10 3.20 c0.90 2.50 1.30 3.10 1.80 2.60 0.50 -0.45 0.50 -0.75 -0.10 -1.65 -0.40 -0.60 -0.70 -1.90 -0.70 -2.90 0 -1.70 0.05 -1.75 1.95 -1.75 1.45 0 2.20 0.30 2.70 1 l0.70 1.05 0.30 -1.05 c0.20 -0.85 0.65 -1 2.65 -1 l2.35 0 -0.30 3.40 -0.25 3.35 0.95 -2.20 c0.55 -1.20 1.10 -2.70 1.25 -3.35 0.25 -1 0.65 -1.20 2.20 -1.20 1.90 0 1.90 0 3.20 3.40 2.15 5.55 1.75 7.10 -1.75 7.10 -1.05 0 -1.45 -0.25 -1.45 -0.85 -0.05 -0.85 -0.05 -0.85 -0.55 0 -0.40 0.70 -1.20 0.85 -4.20 0.85 -2.15 0 -3.75 -0.20 -3.75 -0.50 0 -0.25 -0.45 -0.50 -1 -0.50 -0.55 0 -1 0.25 -1 0.50 0 0.30 -1.65 0.50 -4 0.50 -3.45 0 -4 -0.10 -4 -0.85 -0.05 -0.85 -0.05 -0.85 -0.70 0 -0.40 0.55 -1.35 0.85 -2.50 0.85 -1.70 0 -1.80 -0.10 -1.80 -1.60z"/>
  <path d="M307.30 166.90 c0.20 -2.85 0.40 -5.20 0.45 -5.30 0.10 -0.10 1.85 0 3.95 0.20 3.25 0.30 3.80 0.45 3.80 1.25 0 0.70 0.35 0.95 1.25 0.95 1 0 1.25 -0.25 1.25 -1.25 0 -1.10 0.20 -1.25 2 -1.25 1.80 0 2 0.15 2 1.25 0 1.35 0.25 1.40 10.75 1.45 3.45 0.05 3.50 0.05 3.65 1.45 0.15 1.10 0.40 1.35 1.55 1.35 1.55 0 2.05 0.90 2.05 3.65 0 1.15 -0.20 1.35 -1.35 1.35 -2.90 0 -3.65 -0.50 -3.65 -2.30 0 -1.30 -0.20 -1.70 -0.85 -1.65 -0.55 0 -0.65 0.15 -0.25 0.30 0.30 0.10 0.60 1 0.60 1.90 l0 1.70 -9.10 -0.05 c-5.05 -0.05 -9.55 -0.25 -10 -0.50 -0.70 -0.30 -0.90 -1.05 -0.90 -2.90 0 -2.35 -0.10 -2.50 -1.25 -2.50 -1.20 0 -1.25 0.15 -1.25 3 l0 3 -2.50 0 -2.50 0 0.30 -5.10z"/>
  <path d="M347 169.45 c0 -1.35 -0.20 -2.45 -0.50 -2.45 -0.25 0 -0.50 0.75 -0.50 1.65 0 2.30 -0.60 2.95 -2.55 2.75 l-1.70 -0.15 -0.40 -3.40 c-0.25 -1.90 -0.30 -3.75 -0.15 -4.15 0.30 -0.85 3.90 -0.95 5.35 -0.15 0.65 0.30 4.40 0.50 9.70 0.50 l8.70 -0.05 0.30 1.65 c0.20 0.90 0.25 2.65 0.15 3.85 l-0.15 2.25 -9.10 0.10 -9.15 0.05 0 -2.45z"/>
  <path d="M400 168 l0 -4 4.95 0 c5.65 0 5.55 -0.10 5.55 4.50 0 3.50 0 3.50 -6.05 3.50 l-4.45 0 0 -4z"/>
  <path d="M261.55 153.35 c-3.05 -1.15 -3.80 -2.75 -3.80 -8.05 0 -5 0.55 -6.50 3.05 -8.15 1.65 -1.05 7.50 -1.20 9.40 -0.20 1.25 0.70 1.35 0.95 1.20 3.50 l-0.15 2.80 -2.40 -0.05 c-1.45 0 -2.60 -0.30 -2.85 -0.65 -0.30 -0.50 -0.60 -0.35 -1.25 0.65 -0.85 1.30 -0.85 1.45 -0.05 3.10 0.75 1.60 0.90 1.70 1.60 0.95 0.60 -0.55 1.50 -0.75 3.15 -0.65 l2.30 0.15 0.15 2.60 c0.15 2.25 0 2.70 -1 3.35 -1.60 1.05 -7.25 1.45 -9.35 0.65z"/>
  <path d="M280.05 153.65 c-3.60 -0.75 -5.05 -3.15 -5.05 -8.40 0 -6.50 1.60 -8.50 7.35 -9.05 6.15 -0.60 9.20 2.25 9.10 8.55 -0.05 4.30 -0.90 6.75 -2.75 7.85 -1.60 0.90 -6.50 1.50 -8.65 1.05z m4.50 -7.45 c0.55 -1.50 0.25 -2.80 -0.75 -3.65 -1.60 -1.35 -3.20 2.85 -1.70 4.35 0.95 0.95 1.90 0.70 2.45 -0.70z"/>
  <path d="M343.15 153.45 c-3.20 -0.75 -4.15 -2.65 -4.15 -8.25 0 -4.75 0.85 -7.05 2.95 -8.15 1.75 -0.95 6.65 -1.20 8.80 -0.45 l2 0.65 0 3 c0 1.70 0.25 3.30 0.65 3.65 0.35 0.40 0.60 2.15 0.60 4.60 0 3.30 -0.15 4.05 -0.90 4.45 -1.40 0.75 -7.60 1.05 -9.95 0.50z m4.95 -9.70 c0.15 -0.25 0 -0.80 -0.35 -1.10 -0.55 -0.50 -0.85 -0.50 -1.45 0.15 -1.05 1.05 -1 3.15 0.10 4.35 0.85 0.95 0.85 0.90 1.10 -0.95 0.15 -1.10 0.40 -2.15 0.60 -2.45z"/>
  <path d="M296 153 c-0.55 -0.35 -0.75 -2 -0.90 -7.50 -0.25 -8.30 0.15 -9.50 3.25 -9.50 2.70 0 3.10 0.90 3.15 6.85 l0 5.10 2.65 0.15 2.60 0.15 0.15 2.20 c0.10 1.40 -0.05 2.35 -0.50 2.60 -0.90 0.60 -9.45 0.55 -10.40 -0.05z"/>
  <path d="M310 152.20 c-0.30 -0.70 -0.50 -4.15 -0.50 -7.60 0 -7.40 0.45 -8.60 3.20 -8.60 2.80 0 3.30 1.10 3.30 6.90 l0 5.10 1.95 0 c3 0 3.55 0.35 3.55 2.45 0 2.75 -0.55 3.05 -6.10 3.05 -4.85 0 -4.95 -0.05 -5.40 -1.30z"/>
  <path d="M324.50 152.20 c-0.65 -1.65 -0.65 -12.75 0 -14.45 0.50 -1.30 0.50 -1.30 5.60 -1.15 l5.15 0.15 0.15 1.95 c0.10 1.05 0 2.30 -0.20 2.75 -0.15 0.45 -0.30 2 -0.20 3.45 l0.05 2.60 -2.15 0.10 -2.15 0.05 2.50 0.30 2.50 0.30 0.15 2.20 c0.10 1.40 -0.05 2.35 -0.50 2.60 -0.35 0.25 -2.85 0.45 -5.55 0.45 -4.80 0 -4.90 -0.05 -5.35 -1.30z"/>
  <path d="M358.65 153.15 c-0.50 -0.15 -0.65 -2.30 -0.65 -8.15 0 -6.75 0.10 -7.95 0.80 -8.20 1.45 -0.55 9.45 -0.35 10.10 0.30 1 1 0.75 3.75 -0.40 4.55 -0.90 0.60 -0.90 0.75 -0.25 1 0.50 0.20 0.75 1 0.75 2.35 0 1.65 -0.20 2.10 -1.10 2.45 -1.05 0.40 -1.05 0.40 0.25 0.75 1.15 0.25 1.35 0.60 1.35 2 0 3.25 -0.10 3.30 -5.45 3.25 -2.65 0 -5.10 -0.15 -5.40 -0.30z"/>
  <path d="M286.75 129.05 c-9.60 -1.20 -15.10 -6.10 -16.70 -14.80 -0.70 -3.80 -0.70 -12.45 0 -15.85 0.85 -4.05 3.60 -8.85 6.20 -10.80 3.50 -2.65 6.80 -3.65 13 -3.95 6.55 -0.35 11.50 0.35 16.30 2.20 l3.45 1.35 -0.10 8.30 -0.15 8.25 -7.55 0.15 -7.60 0.15 -0.20 -3.35 c-0.20 -3.40 -1.15 -4.95 -2.65 -4.40 -1.35 0.55 -1.75 2.85 -1.75 10.40 0 6.75 0.10 7.85 0.90 8.85 1.85 2.25 3.60 0 3.60 -4.60 l0 -2.45 7.75 0 7.75 0 0 8.55 0 8.50 -2.15 0.95 c-5.15 2.30 -13.70 3.35 -20.10 2.55z"/>
  <path d="M377.75 129.20 c-10.75 -1.40 -16.05 -5.75 -17.75 -14.55 -0.85 -4.25 -0.40 -16.65 0.70 -19.60 2.85 -7.45 8.50 -10.95 18.55 -11.40 6.55 -0.30 11.55 0.35 16.30 2.20 l3.45 1.35 -0.10 8.30 -0.15 8.25 -7.75 0 -7.75 0 -0.15 -3 c-0.15 -3.20 -0.70 -4.25 -2.15 -4.25 -1.65 0 -1.95 1.70 -1.95 10.20 0 6.80 0.15 8.35 0.80 9 0.90 0.90 1.15 0.95 2.20 0.30 0.50 -0.30 0.85 -1.60 1 -3.85 l0.25 -3.40 7.75 0 7.75 0 0.15 8.30 0.10 8.35 -2.15 1 c-1.20 0.55 -3.50 1.35 -5.15 1.80 -3.05 0.75 -11.30 1.35 -13.95 1z"/>
  <path d="M219.85 128.15 c-0.45 -0.40 -0.45 -7.25 -0.05 -9.75 0.25 -1.40 0.60 -1.90 1.25 -1.90 1 0 1.05 -0.15 3.70 -10 1 -3.70 2.15 -7.75 2.50 -9 0.40 -1.25 1.30 -4.60 2.05 -7.40 1.10 -4.25 1.55 -5.25 2.50 -5.60 1.10 -0.45 21 -0.40 21.35 0.05 0.10 0.10 2.05 6.95 4.30 15.20 2.25 8.25 4.20 15.40 4.35 15.90 0.15 0.45 0.70 0.85 1.20 0.85 1.25 0 1.60 1.95 1.40 7.50 l-0.15 4.25 -22.05 0.15 c-12.10 0.05 -22.20 -0.05 -22.35 -0.25z m22.85 -12.20 c-0.35 -0.60 -4.20 -0.60 -4.20 0 0 0.25 0.50 0.55 1.15 0.65 1.60 0.25 3.40 -0.15 3.05 -0.65z"/>
  <path d="M316.60 122.65 c0.15 -5.70 0.20 -5.90 1.30 -6.05 1.10 -0.15 1.10 -0.15 1.10 -10.40 l0 -10.20 -1.25 0 -1.30 0 0.15 -5.85 0.15 -5.90 12.50 0 12.50 0 0.15 5.90 0.15 5.85 -2.55 0 -2.50 0 0 10.25 c0 8.80 0.10 10.25 0.75 10.25 0.55 0 0.75 -0.60 0.75 -2.25 l0 -2.25 7 0 7 0 0 8.25 0 8.25 -18 0 -18.05 0 0.15 -5.85z"/>
 </g>
 <g fill="#00027f">
  <path d="M97.50 129.50 l0 -57 163 0 163 0 0 57 0 57 -163 0 -163 0 0 -57z m74.55 35.25 c6.10 -5.75 11.20 -10.55 11.40 -10.60 0.15 -0.10 1.40 2.25 2.75 5.10 1.35 2.90 2.55 5.15 2.65 5.05 0.10 -0.10 -0.15 -1.05 -0.60 -2.10 -0.80 -1.90 -3.60 -9 -11.45 -29.45 -2.10 -5.50 -4.15 -10.65 -4.55 -11.50 -0.35 -0.80 -2 -5 -3.65 -9.25 -12.90 -33.25 -11.80 -30.80 -12.50 -29 -0.30 0.70 -1.40 3.60 -2.50 6.50 -1.10 2.90 -3.40 8.75 -5.10 13 l-3.10 7.75 -12.30 12.15 c-11.80 11.65 -11.90 11.80 -2.60 2.95 13.50 -12.75 14.25 -13.40 13.75 -11.90 -0.20 0.70 -5.35 6.10 -11.40 12 l-11 10.80 4.90 4.55 c2.80 2.65 4.80 4.85 4.65 5.25 -0.20 0.60 -6.05 -4.45 -10.50 -9.10 -0.75 -0.80 -1.50 -1.20 -1.65 -1 -0.15 0.25 2.40 3 5.70 6.05 l5.90 5.55 -2.95 7.60 c-1.60 4.20 -3.05 7.95 -3.20 8.35 -0.15 0.40 1.35 -2.40 3.30 -6.25 7.15 -13.95 14.50 -25.05 19.55 -29.40 2.90 -2.50 3.10 -2.65 5.05 -3.85 2.55 -1.55 2.80 -1.20 0.35 0.55 -6.45 4.60 -13 13.25 -20.35 26.95 -2.15 4 -5.60 11.90 -5.60 12.80 0 0.10 2 -3.65 4.40 -8.40 4.95 -9.70 8.85 -16.15 13.20 -21.95 3.10 -4.10 7.50 -8.35 9.80 -9.45 0.75 -0.35 1.75 -0.80 2.20 -1.05 1.45 -0.75 2.90 -0.55 2.90 0.45 0 0.50 -1.05 1.45 -2.55 2.35 -1.40 0.85 -4 3.05 -5.75 4.90 -4.35 4.70 -13.30 18.25 -13.15 19.95 0.05 0.65 21.05 21 22.05 21.35 0.25 0.10 1.30 -0.60 2.30 -1.50 1.35 -1.25 1.25 -1.05 -0.40 0.70 l-2.20 2.35 -3.05 -2.90 c-1.65 -1.60 -5 -4.80 -7.50 -7.10 -2.45 -2.35 -6.55 -6.25 -9.10 -8.70 -2.55 -2.45 -4.75 -4.35 -4.90 -4.20 -0.50 0.50 24.55 24.55 25.30 24.30 0.25 -0.10 5.40 -4.85 11.50 -10.65z m207.90 5.15 c1.40 -3.35 1.70 -4.40 1.10 -4.40 -0.30 0 -0.55 0.40 -0.55 0.90 0 0.50 -0.30 1.35 -0.70 1.85 -0.60 0.85 -0.70 0.75 -1 -0.90 -0.20 -1.05 -0.55 -1.85 -0.80 -1.85 -0.65 0 -0.65 0.15 0.30 2.50 0.45 1.10 0.70 2.45 0.55 3 -0.45 1.70 0.15 1.10 1.10 -1.10z m-177.70 -2.15 c0.55 -1.50 1.10 -2.75 1.30 -2.75 0.20 0 0.60 1.15 0.95 2.50 0.60 2.50 1.20 3.40 1.70 2.60 0.40 -0.65 -2.25 -7.25 -2.75 -6.75 -0.65 0.70 -2.95 7.15 -2.50 7.15 0.20 0 0.80 -1.25 1.30 -2.75z m11.85 0.15 c0.20 -1.85 0.10 -2.40 -0.40 -2.40 -0.50 0 -0.70 0.65 -0.70 2.15 0 1.20 0.15 2.35 0.35 2.50 0.45 0.50 0.50 0.40 0.75 -2.25z m3.30 0.25 c-0.10 -1.35 -0.40 -2.40 -0.80 -2.55 -0.45 -0.15 -0.60 0.40 -0.55 2 0.10 2.40 0.30 2.90 1 2.90 0.25 0 0.40 -1.05 0.35 -2.35z m2.90 0.25 c-0.15 -1.15 -0.65 -2.45 -1.10 -2.90 -0.75 -0.70 -0.80 -0.65 -0.45 0.25 0.25 0.55 0.50 1.85 0.65 2.90 0.10 1 0.45 1.85 0.70 1.85 0.30 0 0.35 -0.85 0.20 -2.10z m4.90 1.60 c-1.20 -0.45 -1.90 -1.80 -1.20 -2.25 0.25 -0.15 0.30 -0.65 0.15 -1.10 -0.30 -0.70 -0.40 -0.70 -1 0.15 -0.35 0.50 -0.65 1.05 -0.65 1.30 0 0.75 2 2.40 2.90 2.35 0.70 0 0.65 -0.10 -0.20 -0.45z m5.40 -1.25 c0 -0.95 0.05 -2 0.10 -2.35 0.05 -0.30 -0.20 -0.65 -0.55 -0.75 -0.40 -0.15 -0.55 0.55 -0.50 2.30 0.05 2.85 0.80 3.50 0.95 0.80z m3.25 -0.65 c0.05 -1.20 -0.20 -2.10 -0.55 -2.25 -0.45 -0.15 -0.60 0.50 -0.65 2.20 0 3.05 1.05 3.10 1.20 0.05z m3.15 0.40 c0 -1.60 -0.45 -3 -0.95 -3 -0.15 0 -0.30 1.10 -0.30 2.45 0 1.75 0.20 2.35 0.65 2.20 0.30 -0.15 0.60 -0.90 0.60 -1.65z m6.70 1.20 c1 -0.95 1.05 -2.90 0.05 -3.70 -0.60 -0.50 -0.65 -0.35 -0.45 1.10 0.35 1.90 -0.60 3.15 -2 2.60 -0.60 -0.25 -0.85 -0.80 -0.75 -1.90 0.20 -2.80 -0.05 -4.85 -0.50 -4.60 -0.25 0.20 -0.45 1.70 -0.45 3.45 0.05 2.70 0.20 3.15 1.10 3.45 1.70 0.50 2.20 0.45 3 -0.40z m4.95 0.30 c-0.90 -0.35 -1.15 -0.85 -1.15 -2.20 0 -0.95 0.30 -1.85 0.65 -1.95 0.45 -0.20 0.45 -0.30 0 -0.30 -0.90 -0.05 -2.10 1.95 -1.80 2.90 0.40 1.05 1.65 2.05 2.60 2 0.50 0 0.35 -0.20 -0.30 -0.45z m5.60 -0.95 c-0.25 -1.10 -0.05 -1.75 0.70 -2.50 l1 -1 -1.50 0.10 c-1 0.05 -1.40 0.30 -1.20 0.75 0.15 0.40 0.25 1.45 0.25 2.40 0 0.95 0.25 1.70 0.55 1.70 0.35 0 0.40 -0.55 0.20 -1.45z m11.45 0.65 c1 -0.95 1.05 -3.50 0.10 -3.85 -0.55 -0.25 -0.65 0 -0.30 1.15 0.55 1.95 -0.55 3.50 -1.85 2.70 -0.50 -0.35 -0.90 -1.15 -0.90 -1.90 0.05 -1.50 -0.95 -1.45 -1.15 0.05 -0.10 0.65 0.30 1.35 1 1.85 1.40 1 2.10 1 3.10 0z m4.70 -1.50 c0 -1.40 0.30 -2.50 0.70 -2.75 0.65 -0.45 0.60 -0.45 -1.70 -0.65 -0.45 -0.05 -0.55 0.70 -0.45 2.45 0.15 2.65 0.35 3.25 1.05 3.25 0.20 0 0.40 -1.05 0.40 -2.30z m8.50 0.95 c0.30 -0.80 0.70 -2 0.90 -2.75 0.45 -2.10 1 -1.70 1.95 1.35 0.80 2.45 1.75 3.65 1.75 2.20 0 -1.35 -2.20 -6.45 -2.75 -6.45 -0.30 0 -0.90 0.95 -1.25 2.15 -0.40 1.15 -0.85 2.35 -1 2.60 -0.65 1 -0.95 2.25 -0.55 2.25 0.25 0 0.65 -0.60 0.95 -1.35z m14.75 -2.55 c0.15 -4 -0.50 -4.75 -1.85 -2 -1 1.95 -1 2.95 -0.05 1.70 0.70 -0.90 0.75 -0.80 0.75 1.65 0 4.05 1.05 2.85 1.15 -1.35z m4.95 0.30 c0.30 -1.05 0.70 -1.90 0.95 -1.90 0.20 0 0.65 1.25 1 2.75 0.50 1.95 0.90 2.60 1.30 2.35 0.50 -0.30 0.35 -1.20 -0.65 -3.75 -0.70 -1.85 -1.45 -3.35 -1.65 -3.35 -0.15 0 -0.85 1.50 -1.55 3.35 -1.70 4.55 -1.70 4.55 -0.75 3.40 0.40 -0.55 1.05 -1.85 1.35 -2.85z m11.75 0.10 c-0.05 -2.10 -0.30 -3.55 -0.65 -3.70 -0.40 -0.15 -0.55 0.65 -0.45 2.85 0.05 1.70 -0.05 3.35 -0.30 3.60 -0.25 0.35 -0.05 0.55 0.55 0.60 0.85 0.10 0.95 -0.25 0.85 -3.35z m7.55 2.95 c-0.60 -0.30 -0.90 -1.10 -0.90 -2.20 0 -1.15 0.25 -1.75 0.90 -1.95 0.50 -0.15 0.30 -0.20 -0.40 -0.15 -2.40 0.20 -1.70 4.90 0.70 4.85 0.30 0 0.15 -0.25 -0.30 -0.55z m7.20 0.15 c-0.35 -0.25 -0.80 -1.40 -1.05 -2.65 l-0.45 -2.20 -0.05 2.35 c-0.05 2.20 0.30 2.75 1.70 2.85 0.30 0 0.20 -0.15 -0.15 -0.35z m2.50 -2.10 c-0.10 -1.35 -0.40 -2.50 -0.60 -2.50 -0.65 0 -0.40 4.20 0.20 4.60 0.30 0.20 0.55 0.40 0.55 0.40 0 0 -0.10 -1.10 -0.15 -2.50z m4.45 1.70 c-0.90 -0.65 -1.10 -1.15 -0.85 -2.25 0.35 -1.80 -0.55 -1.90 -1 -0.10 -0.30 1 -0.10 1.55 0.80 2.25 0.60 0.50 1.35 0.90 1.65 0.90 0.30 0 0.05 -0.35 -0.60 -0.80z m6 0.15 c-0.30 -0.40 -0.40 -0.85 -0.20 -1 0.15 -0.20 -0.05 -0.35 -0.50 -0.35 -1.10 0 -1.10 1.35 0.05 1.65 0.45 0.15 0.95 0.25 1.05 0.30 0.10 0 -0.10 -0.25 -0.40 -0.60z m11.45 -1.85 c0 -1.35 -0.20 -2.50 -0.50 -2.50 -0.25 0 -0.50 1.15 -0.50 2.50 0 1.40 0.25 2.50 0.50 2.50 0.30 0 0.50 -1.10 0.50 -2.50z m6.70 1.70 c0.95 -0.90 1.05 -2.75 0.20 -3.60 -0.35 -0.35 -1.20 -0.60 -1.90 -0.60 -0.70 0 -1.55 0.25 -1.90 0.60 -1.40 1.40 -0.10 4.40 1.90 4.40 0.50 0 1.30 -0.35 1.70 -0.80z m4.30 -1.70 c0 -1.35 -0.20 -2.50 -0.50 -2.50 -0.25 0 -0.50 1.15 -0.50 2.50 0 1.40 0.25 2.50 0.50 2.50 0.30 0 0.50 -1.10 0.50 -2.50z m3.30 0.75 c0.10 -2.15 -0.30 -3.25 -1.15 -3.25 -0.65 0 -0.65 0.15 -0.15 0.75 0.35 0.40 0.50 1.55 0.40 2.50 -0.10 1.10 0 1.70 0.30 1.60 0.30 -0.10 0.55 -0.85 0.60 -1.60z m11.20 -0.50 c0 -0.95 -0.40 -1.40 -1.70 -1.95 -2.10 -0.90 -2.55 -1.60 -1.45 -2.25 0.80 -0.45 0.80 -0.50 -0.20 -0.55 -2.25 0 -1.65 2.45 0.85 3.50 1.55 0.65 1.95 1.85 0.90 2.95 -0.55 0.55 -0.45 0.55 0.50 0.10 0.70 -0.35 1.10 -1.05 1.10 -1.80z m12.65 0.45 c-0.15 -0.45 -0.85 -1 -1.50 -1.25 -0.85 -0.30 -1.15 -0.70 -0.95 -1.25 0.20 -0.50 0.05 -0.70 -0.30 -0.60 -1.25 0.45 -1 1.90 0.35 2.40 1 0.40 1.30 0.75 1.10 1.50 -0.20 0.85 -0.10 0.90 0.70 0.50 0.55 -0.30 0.80 -0.80 0.60 -1.30z m3.95 1.35 c-0.45 -0.25 -0.65 -1.20 -0.55 -2.85 0.15 -1.90 0 -2.45 -0.55 -2.45 -0.55 0 -0.70 0.50 -0.60 2 0.25 2.90 0.55 3.75 1.50 3.75 0.65 0 0.70 -0.10 0.20 -0.45z m5.55 -0.05 c-1.05 -0.40 -1.40 -1.05 -1.20 -2.10 0 -0.25 -0.30 -0.40 -0.70 -0.40 -0.40 0 -0.75 0.25 -0.75 0.50 0 0.85 1.95 2.50 2.90 2.45 0.65 0 0.60 -0.10 -0.25 -0.45z m5.45 -1.25 c0 -0.95 0.05 -2 0.10 -2.35 0.05 -0.30 -0.20 -0.65 -0.55 -0.75 -0.35 -0.15 -0.55 0.60 -0.50 2.30 0.10 2.90 0.80 3.50 0.95 0.80z m3.25 -0.65 c0 -1.15 -0.20 -2.10 -0.55 -2.25 -0.40 -0.15 -0.60 0.55 -0.60 2.20 -0.05 3.05 1 3.10 1.15 0.05z m3.15 0.40 c0 -1.60 -0.45 -3 -0.95 -3 -0.15 0 -0.30 1.10 -0.30 2.45 0 1.75 0.20 2.35 0.65 2.20 0.30 -0.15 0.60 -0.90 0.60 -1.65z m-88.50 -2 c0 -4.55 -0.85 -4.55 -1.10 0 -0.10 2.55 0 3.50 0.50 3.50 0.40 0 0.60 -1.05 0.60 -3.50z m23.90 0.45 c-0.15 -1.05 0 -1.45 0.55 -1.45 0.65 -0.05 0.65 -0.10 -0.10 -0.55 -1.55 -0.90 -2.10 -0.30 -1.90 2.10 0.05 1.20 0.25 2.40 0.40 2.65 0.50 0.75 1.25 -1.25 1.05 -2.75z m-53.90 1.25 c0 -0.40 -0.20 -0.70 -0.45 -0.70 -0.25 0 -0.80 -0.90 -1.20 -1.95 -0.75 -1.85 -1.65 -2.90 -2.10 -2.45 -0.15 0.10 0.50 1.60 1.40 3.25 1.50 2.85 2.35 3.55 2.35 1.85z m-103.25 -15.25 c-2.65 -6.70 -6.15 -15.55 -7.75 -19.70 -4.60 -11.65 -14.40 -36.80 -17.15 -44 -2.55 -6.60 -3.35 -8.20 -3.35 -6.55 0 0.90 2.15 6.75 5 13.55 0.80 1.95 2.65 6.55 4.05 10.25 1.40 3.70 2.95 7.75 3.45 9 5.55 14.15 9.50 24.30 12.45 31.90 3.25 8.30 7.60 18.15 7.95 17.85 0.05 -0.05 -2.05 -5.60 -4.65 -12.30z m82.15 -1.80 c0.75 -0.45 1.10 -1.10 1 -1.80 -0.20 -1.35 -1.50 -1.65 -2.55 -0.60 -0.45 0.40 -1.45 0.75 -2.30 0.75 -1.85 0 -3.05 -1.90 -3.05 -4.85 0 -2.70 1.15 -4.15 3.25 -4.15 0.90 0 1.75 0.20 1.85 0.45 0.10 0.25 0.60 0.55 1.15 0.65 0.75 0.10 1.05 -0.15 1.15 -1.15 0.20 -1.60 -1.65 -2.70 -4.50 -2.60 -4 0.20 -6.15 2.75 -6.15 7.45 0 2.35 0.25 3.45 1.05 4.50 1.85 2.50 6.25 3.15 9.10 1.35z m17.75 0 c3.80 -1.90 3.45 -11.10 -0.50 -12.75 -1.95 -0.80 -5.25 -0.65 -7.15 0.35 -3.85 2 -4.10 9.95 -0.35 12.40 2.15 1.40 5.20 1.40 8 0z m64.50 0.25 c1.80 -0.90 0.80 -6.90 -1.15 -6.90 -0.75 0 -1.50 1.80 -1.50 3.45 0 1.40 -0.15 1.55 -1.65 1.55 -2.70 0 -4.25 -2.50 -3.65 -5.80 0.20 -0.90 0.70 -2 1.10 -2.45 0.85 -0.85 4.20 -1.05 4.20 -0.25 0 0.30 0.55 0.50 1.25 0.50 1 0 1.25 -0.25 1.25 -1.25 0 -1.60 -1.60 -2.45 -4.55 -2.40 -4.35 0.05 -6.45 2.40 -6.45 7.35 0 4 1.30 6.10 4.15 6.70 2.25 0.45 5.55 0.25 7 -0.50z m-46.70 0.15 c0.40 -0.25 0.55 -0.80 0.40 -1.25 -0.25 -0.60 -1 -0.80 -2.85 -0.80 l-2.50 0 0 -5.10 c-0.05 -3.85 -0.25 -5.40 -0.80 -6.15 -0.75 -1 -0.75 -1 -1.60 0.05 -0.75 0.85 -0.85 2.05 -0.80 6.90 0.05 4.45 0.20 6 0.75 6.35 0.90 0.55 6.50 0.55 7.40 0z m14.60 -0.35 c0.90 -1.10 -0.15 -1.70 -2.90 -1.70 l-2.15 0 0 -5.15 c0 -4.50 -0.15 -5.30 -0.95 -6.05 -0.95 -0.85 -1 -0.85 -1.70 0.30 -0.55 0.85 -0.70 2.60 -0.60 6.70 0.05 3.05 0.25 5.80 0.45 6.10 0.55 0.95 7.05 0.80 7.85 -0.20z m14.40 0.35 c0.40 -0.25 0.55 -0.80 0.40 -1.25 -0.25 -0.60 -1 -0.80 -2.85 -0.80 l-2.55 0 0.15 -1.60 c0.15 -1.55 0.30 -1.65 2.30 -1.80 1.90 -0.15 2.15 -0.30 2 -1.25 -0.10 -0.90 -0.55 -1.15 -2.30 -1.25 -2 -0.15 -2.15 -0.25 -2 -1.50 0.15 -1.20 0.40 -1.40 2.40 -1.60 1.85 -0.20 2.25 -0.45 2.25 -1.25 0 -0.90 -0.40 -1 -3.65 -1.15 -3.50 -0.15 -3.60 -0.10 -4.10 1.15 -0.65 1.70 -0.65 9.80 0 11.45 0.45 1.20 0.70 1.30 3.85 1.30 1.90 0 3.70 -0.20 4.10 -0.45z m33.75 -0.40 c0.45 -1.10 -0.55 -1.65 -3.10 -1.65 -2.15 0 -2.15 0 -2 -1.60 0.15 -1.55 0.30 -1.65 2.10 -1.75 1.05 0 2.15 -0.30 2.50 -0.65 0.80 -0.85 -0.95 -2 -3.10 -2 -1.50 0 -1.65 -0.10 -1.50 -1.35 0.15 -1.25 0.40 -1.40 2.15 -1.55 4.55 -0.40 3.90 -2.60 -0.75 -2.60 -4.70 0 -4.50 -0.30 -4.50 7 0 4.65 0.15 6.50 0.65 6.65 0.30 0.15 2.10 0.30 3.90 0.30 2.70 0.05 3.40 -0.10 3.65 -0.80z m-165.85 -15.30 c-0.15 -0.55 -31.05 -29.85 -31.25 -29.65 -0.60 0.60 1.75 3.30 8.65 9.90 4.40 4.15 10.75 10.25 14.15 13.45 3.35 3.20 6.10 6.05 6.10 6.30 0 0.25 -0.85 1.25 -1.85 2.20 l-1.90 1.70 1.75 -1.90 1.75 -1.95 -3 -2.75 c-1.65 -1.55 -7.05 -6.65 -11.95 -11.35 -4.95 -4.70 -8.80 -8.10 -8.60 -7.55 0.25 0.55 1.60 4.05 3 7.75 1.45 3.70 4.15 10.75 6.05 15.65 l3.45 8.85 3.05 -3 c1.65 -1.65 3.20 -3 3.35 -3 0.20 0 -1.45 1.75 -3.70 3.90 -3.05 2.95 -4 4.15 -3.75 4.80 0.30 0.70 1.75 -0.45 7.60 -6 4 -3.80 7.20 -7.10 7.10 -7.35z m98.35 -9.15 c1.60 -0.40 3.90 -1.15 5.10 -1.70 l2.20 -0.95 0 -7 0 -7.05 -6.20 0 -6.20 0 -0.20 3.25 c-0.25 3.85 -1 4.80 -3.65 4.90 -1.40 0.05 -2.10 -0.25 -2.80 -1.10 -0.85 -1.05 -0.95 -2.10 -0.95 -10.40 0 -11 0.35 -12.15 3.80 -12.15 2.60 0 3.35 1 3.60 4.60 l0.20 3.20 6.10 -0.05 6.05 -0.05 0.15 -6.75 0.15 -6.70 -3.50 -1.40 c-4.65 -1.80 -9.85 -2.55 -14.95 -2.15 -7.60 0.55 -12.40 3.35 -15.30 8.80 -2 3.85 -2.80 7.25 -2.80 12.20 0 11.25 4.20 17.90 13 20.60 3.75 1.10 11.50 1.10 16.20 -0.10z m90 0 c1.65 -0.45 3.95 -1.25 5.15 -1.80 l2.20 -1 -0.15 -6.85 -0.15 -6.80 -6.25 0 -6.25 0 -0.15 2.50 c-0.20 3.95 -0.45 4.60 -2.10 5.20 -1.65 0.55 -3.90 0 -4.60 -1.10 -0.20 -0.35 -0.40 -5.05 -0.40 -10.45 0 -9.25 0.05 -9.95 1 -10.90 1.20 -1.20 3.35 -1.30 4.85 -0.25 0.90 0.65 1.15 1.35 1.25 3.90 l0.15 3.10 6.25 0 6.25 0 0.15 -6.75 0.15 -6.75 -3.50 -1.40 c-11.55 -4.45 -24.60 -2.30 -29.55 4.95 -2.35 3.35 -3.05 6 -3.35 12.10 -0.40 8.70 1.05 14.05 5 18.10 4.60 4.70 14.95 6.50 24.05 4.20z m-150.80 -4.05 l-0.15 -4.40 -1.35 0.10 c-1.50 0.10 -1.75 -0.75 -1.10 -3.20 0.30 -1.05 0.60 -1.15 3.75 -1.15 3.70 0 3.90 0.15 4.10 2.80 0.10 1.25 -0.10 1.45 -1.15 1.45 -1.25 0 -1.25 0.10 -1.40 4.40 l-0.15 4.35 10.40 -0.10 10.40 -0.15 0.15 -2.75 c0.25 -4.05 -0.25 -6.10 -1.35 -5.75 -0.75 0.20 -1.40 -1.80 -5.30 -15.85 -2.40 -8.90 -4.45 -16.20 -4.50 -16.30 -0.25 -0.30 -17.60 -0.40 -18.55 -0.05 -0.85 0.30 -1.35 1.50 -2.65 6.30 -0.85 3.25 -2.25 8.25 -3.05 11.15 -0.80 2.90 -1.95 7.05 -2.55 9.25 -1.25 4.80 -1.75 5.80 -2.70 5.45 -0.55 -0.25 -0.75 0.10 -0.80 1.10 -0.20 4 -0.20 7 -0.05 7.35 0.10 0.20 4.20 0.35 9.15 0.35 l9 0 -0.15 -4.35z m111.60 -2.40 l0 -6.75 -5.50 0 -5.45 0 0.20 1.90 c0.25 2.50 -0.10 2.85 -2.60 2.90 l-2.15 0.05 0 -11.95 0 -11.90 2.50 0 2.55 0 -0.15 -4.35 -0.15 -4.30 -11 0 -11 -0.05 -0.15 4.35 -0.15 4.35 1.30 0 1.25 0 0 12 0 12 -1.10 -0.15 c-1.10 -0.10 -1.15 0.05 -1.30 4.30 l-0.15 4.35 16.55 0 16.50 0 0 -6.75z"/>
  <path d="M168.75 165.20 c8.35 -8.40 13.75 -13.50 13.70 -12.95 -0.05 0.25 -4.15 4.30 -9.15 8.95 -4.95 4.65 -7 6.45 -4.55 4z"/>
  <path d="M353.60 169.55 c-0.40 -0.25 -0.60 -1.05 -0.50 -1.85 0.10 -1.15 0.40 -1.45 1.40 -1.45 1 0 1.30 0.30 1.40 1.45 0.15 1.25 -0.50 2.30 -1.40 2.30 -0.15 0 -0.55 -0.20 -0.90 -0.45z"/>
  <path d="M280.75 148.50 c-1.55 -1.70 -1.25 -6.55 0.40 -7.60 0.35 -0.20 1.35 -0.40 2.20 -0.40 2.35 0 3.35 1.70 3.05 5.10 -0.30 2.85 -1.20 3.90 -3.40 3.90 -0.75 0 -1.75 -0.45 -2.25 -1z"/>
  <path d="M238.50 107.65 c0.05 -1.40 1.75 -9.05 2.10 -9.40 0.25 -0.25 1.20 3.40 2.20 8.65 l0.35 1.60 -2.35 0 c-1.85 0 -2.30 -0.15 -2.30 -0.85z"/>
 </g>
 <g fill="#ef0000">
  <path d="M281 275.15 l0 -25.15 65 0 65 0 0 25.15 0 25.10 -65 0 -65 0 0 -25.10z m22.55 -11.20 c0.80 -1.55 -0.15 -3.30 -2 -3.70 -0.80 -0.15 -1.60 -0.65 -1.75 -1.05 -0.25 -0.65 0.05 -0.75 1.60 -0.60 2.30 0.20 2.60 -1.10 0.35 -1.65 -1.90 -0.55 -3.75 0.60 -3.75 2.25 0 1.35 0.70 2.05 2.65 2.50 1.65 0.40 1.85 1.80 0.20 1.80 -0.65 0 -1.40 -0.25 -1.75 -0.60 -0.45 -0.45 -0.65 -0.35 -0.90 0.30 -0.45 1.15 0.55 1.80 2.90 1.80 1.40 0 2 -0.25 2.45 -1.05z m7.20 -2.05 c0 -3.10 0.05 -3.15 1.40 -3.30 2.70 -0.30 1.10 -1.35 -2.30 -1.50 -2.75 -0.10 -3.35 0 -3.35 0.65 0 0.45 0.45 0.75 1.25 0.75 1.20 0 1.25 0.10 1.25 3.25 0 2.75 0.15 3.25 0.90 3.25 0.70 0 0.85 -0.50 0.85 -3.10z m11.45 2.30 c1.10 -1.05 1.15 -7.20 0.05 -7.20 -0.50 0 -0.75 0.75 -0.85 2.80 -0.10 2.05 -0.40 3 -1 3.40 -1.35 0.80 -2.10 -0.35 -2.15 -3.30 -0.05 -2.05 -0.25 -2.70 -0.90 -2.80 -0.75 -0.15 -0.85 0.30 -0.85 3.10 0 3.75 0.70 4.80 3.25 4.80 0.90 0 2.05 -0.35 2.45 -0.80z m10.25 -0.05 c0.60 -0.50 1.20 -1.75 1.35 -2.75 0.45 -2.65 -1.35 -4.40 -4.55 -4.40 l-2.25 0 0 4 0 4 2.20 0 c1.35 0 2.60 -0.35 3.25 -0.85z m10.05 0.10 c0 -0.55 -0.55 -0.75 -1.80 -0.75 -1.40 0 -1.75 -0.15 -1.60 -0.85 0.10 -0.50 0.50 -0.95 0.90 -0.95 0.40 -0.05 1.05 -0.10 1.40 -0.15 1.20 -0.10 0.60 -1.10 -0.90 -1.35 -2.15 -0.45 -1.95 -1.70 0.25 -1.70 1.20 0 1.75 -0.25 1.75 -0.75 0 -0.55 -0.60 -0.75 -2.45 -0.75 l-2.45 0 -0.20 3.80 c-0.10 2.10 -0.05 3.90 0.05 4 0.10 0.10 1.30 0.20 2.65 0.20 1.80 0 2.40 -0.20 2.40 -0.75z m5.50 -1.60 l0 -2.30 1.80 2.30 c2.70 3.45 3.20 3.15 3.20 -1.65 0 -3.15 -0.15 -4 -0.70 -4 -0.55 0 -0.80 0.70 -0.90 2.30 l-0.15 2.30 -1.70 -2.30 c-0.95 -1.25 -2.15 -2.30 -2.65 -2.30 -0.80 0 -0.90 0.45 -0.90 4 0 3.65 0.10 4 1 4 0.85 0 1 -0.35 1 -2.35z m12.50 -0.90 c0 -3.15 0.05 -3.25 1.25 -3.25 0.80 0 1.25 -0.30 1.25 -0.75 0 -0.60 -0.70 -0.75 -3.25 -0.75 -2.55 0 -3.25 0.15 -3.25 0.75 0 0.40 0.45 0.75 1 0.75 0.90 0 1 0.35 1 2.90 0 3.05 0.20 3.60 1.35 3.60 0.45 0 0.65 -0.90 0.65 -3.25z m13 0.65 l0 -2.65 1.85 2.65 c1.05 1.50 2.20 2.60 2.75 2.60 0.80 0 0.90 -0.45 0.90 -4 0 -3.65 -0.10 -4 -0.95 -4 -0.80 0 -1 0.40 -1.15 2.30 l-0.15 2.35 -1.70 -2.35 c-2.30 -3.30 -3.25 -3 -3.45 1.15 -0.15 3.65 0.05 4.55 1.15 4.55 0.55 0 0.75 -0.60 0.75 -2.60z m16 1.60 c2.10 -2.10 0.85 -6.60 -2.05 -7.20 -1.70 -0.35 -4.15 0.70 -4.65 1.95 -0.65 1.80 -0.30 4.20 0.80 5.25 1.45 1.35 4.55 1.35 5.90 0z m6.50 0 c0 -0.65 -0.35 -1 -1 -1 -0.65 0 -1 0.35 -1 1 0 0.65 0.35 1 1 1 0.65 0 1 -0.35 1 -1z m0 -4.05 c0 -0.60 -0.35 -0.95 -0.95 -0.95 -1.25 0 -1.75 1.35 -0.65 1.95 1.05 0.60 1.60 0.25 1.60 -1z"/>
  <path d="M328.85 263.15 c-0.20 -0.15 -0.35 -1.30 -0.35 -2.50 0 -1.90 0.15 -2.15 1.15 -2.15 1.55 0 2.35 0.90 2.35 2.60 0 1.70 -2.15 3.10 -3.15 2.05z"/>
  <path d="M384.80 262.70 c-0.95 -0.90 -1.05 -2.75 -0.20 -3.60 1 -1 3.30 -0.75 3.90 0.40 1.40 2.65 -1.65 5.30 -3.70 3.20z"/>
  <path d="M97.50 198.50 c0 -13 0.10 -15 0.75 -15 0.40 0 0.75 0.35 0.75 0.75 0 0.65 18.30 0.75 161.50 0.75 143.20 0 161.50 -0.10 161.50 -0.75 0 -0.40 0.35 -0.75 0.75 -0.75 0.65 0 0.75 2 0.75 15 0 13 -0.10 15 -0.75 15 -0.40 0 -0.75 -0.35 -0.75 -0.75 0 -0.65 -18.30 -0.75 -161.50 -0.75 -143.20 0 -161.50 0.10 -161.50 0.75 0 0.40 -0.35 0.75 -0.75 0.75 -0.65 0 -0.75 -2 -0.75 -15z m26.50 2.45 c0.60 -1.70 1.25 -2.85 1.50 -2.65 0.20 0.25 0.75 1.65 1.30 3.10 1.40 4.10 2.35 3.60 4.20 -2.25 0.85 -2.70 1.90 -5.10 2.30 -5.30 1.05 -0.60 0.35 -1.35 -1.25 -1.35 -1.65 0 -2.20 0.45 -1.60 1.20 0.30 0.35 0.15 1.80 -0.45 3.80 -0.95 3.40 -1 3.40 -2.25 -0.70 -0.45 -1.60 -0.55 -2.70 -0.25 -3.05 0.70 -0.85 0.05 -1.25 -2 -1.25 -2.25 0 -2.75 0.40 -1.70 1.55 0.70 0.80 0.70 1.10 -0.10 3.65 -0.50 1.55 -1.05 2.80 -1.20 2.80 -0.20 0 -0.75 -1.50 -1.25 -3.35 -0.65 -2.45 -0.75 -3.40 -0.35 -3.55 1.25 -0.40 -0.05 -1.10 -2.10 -1.10 -2.50 0 -3.05 0.40 -2.10 1.45 0.40 0.45 1.30 2.60 2.05 4.80 0.70 2.20 1.40 4.30 1.50 4.65 0.10 0.30 0.75 0.60 1.40 0.60 1.05 0 1.40 -0.45 2.35 -3.05z m21 2.15 c1.55 -1.25 1.55 -4.45 0 -5.70 -1.35 -1.10 -5.35 -1.20 -6.85 -0.15 -1.45 1 -1.85 2.95 -0.90 4.70 0.90 1.75 1.30 1.95 4.30 2 1.55 0.05 2.70 -0.25 3.45 -0.85z m9.85 0 c-0.80 -0.85 -0.80 -1.90 -0.05 -4.20 0.25 -0.80 0.60 -0.95 1.70 -0.70 1.35 0.25 2.40 -0.65 1.65 -1.40 -0.55 -0.50 -2.45 -0.30 -3.05 0.30 -0.50 0.50 -0.70 0.50 -1.05 0 -0.40 -0.70 -3.55 -0.30 -3.55 0.45 0 0.25 0.25 0.45 0.50 0.45 0.90 0 0.60 4.55 -0.35 5.30 -0.80 0.60 -0.50 0.65 2.05 0.70 2.80 0 2.90 -0.05 2.15 -0.90z m12.05 0.20 c-0.75 -0.55 -0.90 -1.50 -0.90 -5.75 l0 -5.05 -1.35 0.30 c-1.90 0.45 -2.20 0.70 -1.85 1.30 0.60 1 0.35 8.35 -0.30 9.15 -0.55 0.65 -0.25 0.75 2.30 0.75 2.55 -0.05 2.85 -0.10 2.10 -0.70z m13.95 0 c-0.70 -0.55 -0.85 -1.50 -0.85 -5.75 l0 -5.05 -1.35 0.30 c-1.95 0.45 -2.20 0.70 -1.80 1.35 1.05 1.70 0.65 2.35 -1.45 2.35 -2.80 0 -3.90 1.05 -3.90 3.80 0 3.20 0.75 3.65 5.85 3.60 3.70 0 4.25 -0.10 3.50 -0.60z m23.85 0.15 c1.30 -0.60 2.15 -1.95 1.25 -1.95 -0.30 0 -0.85 0.35 -1.25 0.75 -0.95 0.90 -3.20 1 -4.40 0.10 -1.95 -1.40 -1.45 -7.20 0.75 -8.40 1.25 -0.65 3.35 -0.05 4 1.10 0.65 1.25 1.35 0.85 1.20 -0.65 -0.20 -2.05 -0.25 -2.15 -0.65 -1.55 -0.25 0.45 -0.90 0.45 -2.50 0 -1.90 -0.50 -2.40 -0.45 -4 0.40 -2.40 1.30 -3.20 2.90 -2.95 5.95 0.30 3.25 1.95 4.80 5.10 4.80 1.20 0 2.75 -0.25 3.45 -0.55z m10.70 -0.15 c-0.75 -0.55 -0.90 -1.50 -0.90 -5.80 0 -4.45 -0.10 -5.05 -0.80 -4.80 -0.45 0.15 -1.10 0.30 -1.50 0.30 -0.65 0 -0.75 0.85 -0.65 4.75 0.05 3.20 -0.10 5 -0.55 5.50 -0.55 0.65 -0.25 0.75 2.30 0.75 2.55 -0.05 2.85 -0.10 2.10 -0.70z m13.10 0.15 c0 -0.25 -0.20 -0.45 -0.50 -0.45 -0.25 0 -0.50 -1.25 -0.50 -2.75 0 -3.15 -0.65 -3.75 -4.10 -3.75 -2.20 0 -3.40 0.65 -3.40 1.85 0 0.90 1.45 0.80 1.80 -0.10 0.45 -1.10 2.70 -0.95 2.70 0.15 0 0.65 -0.60 1.10 -2 1.55 -2.10 0.60 -3.20 1.95 -2.70 3.25 0.20 0.55 1.20 0.75 4.50 0.70 2.30 0 4.20 -0.20 4.20 -0.45z m10.55 0.05 c1.05 -0.60 1.30 -2.60 0.35 -3.35 -0.35 -0.30 -1.30 -0.75 -2.10 -1 -2.05 -0.65 -2.40 -1.85 -0.50 -1.55 0.80 0.15 1.85 0.45 2.35 0.65 0.65 0.25 0.85 0.10 0.85 -0.60 0 -0.80 -0.45 -0.95 -2.95 -1.05 -3 -0.10 -4.55 0.60 -4.55 2.10 0 0.90 1.50 2.15 3.15 2.55 0.75 0.20 1.35 0.65 1.35 1.05 0 1 -2.95 0.90 -3.35 -0.10 -0.25 -0.65 -0.35 -0.65 -0.70 -0.10 -0.25 0.35 -0.45 0.80 -0.45 1 0 0.85 5.05 1.15 6.55 0.40z m11.45 0.25 c0.70 -0.20 1 -0.75 1 -1.70 0 -1.60 -0.80 -2.45 -2.80 -3 -1.95 -0.50 -2.15 -1.55 -0.25 -1.55 0.80 0 1.65 0.25 1.80 0.50 0.50 0.85 1.25 0.55 1.25 -0.50 0 -0.90 -0.35 -1 -2.90 -1 -3.15 0 -4.10 0.55 -4.10 2.40 0 0.90 0.50 1.40 2.25 2.15 2.45 1.10 2.55 1.95 0.25 1.95 -0.85 0 -1.55 -0.35 -1.75 -0.85 -0.35 -0.85 -0.40 -0.80 -0.75 0.10 -0.20 0.55 -0.30 1.10 -0.25 1.25 0.25 0.40 5.20 0.60 6.25 0.25z m17.90 -0.45 c-0.75 -0.55 -0.90 -1.45 -0.90 -5.25 0 -3.90 0.10 -4.55 0.85 -4.55 1.85 0 -0.05 -0.70 -2.35 -0.85 -2.40 -0.15 -3.75 0.45 -2.25 1.05 1.20 0.45 1.05 8.70 -0.10 9.60 -0.80 0.60 -0.45 0.65 2.35 0.65 2.80 0 3.15 -0.05 2.40 -0.65z m12.60 0.25 c0 -0.25 -0.30 -0.55 -0.70 -0.70 -0.95 -0.35 -1 -8.05 -0.05 -8.85 0.90 -0.75 2.20 -0.10 2.55 1.30 0.45 1.70 1.20 0.95 1 -0.95 l-0.15 -1.60 -5.40 0 c-5.40 0 -5.40 0 -5.50 1.25 -0.20 1.90 0.55 2.90 0.90 1.35 0.30 -1.05 2.15 -2.20 2.75 -1.60 0.10 0.10 0.25 2.15 0.30 4.50 0.10 3.25 -0.05 4.40 -0.55 4.60 -1.50 0.60 -0.50 1.15 2.10 1.15 1.50 0 2.75 -0.20 2.75 -0.45z m23.90 -1.15 c0.20 -1.60 -0.65 -1.90 -1.05 -0.35 -0.25 0.85 -0.60 1 -2.45 0.85 -1.90 -0.15 -2.15 -0.30 -2.15 -1.40 -0.05 -2.55 1.85 -4.15 2.55 -2.25 0.55 1.35 1.20 0.80 1.20 -1 0 -1.60 -0.65 -2.40 -1.10 -1.30 -0.05 0.20 -0.65 0.60 -1.25 0.75 -1.10 0.35 -1.15 0.20 -1.15 -1.85 0 -2 0.10 -2.20 1.15 -2.10 0.60 0.05 1.50 0.15 1.95 0.20 0.45 0 1 0.50 1.15 1.05 0.50 1.60 1.30 1.15 1.10 -0.60 l-0.15 -1.65 -4.25 -0.10 c-4.70 -0.15 -6.20 0.15 -4.90 0.85 0.65 0.35 0.75 1.25 0.65 4.75 -0.10 2.50 -0.40 4.65 -0.75 5.05 -0.55 0.65 0.05 0.70 4.35 0.60 l4.95 -0.15 0.15 -1.35z m13.95 0.85 c-0.70 -0.50 -0.85 -1.45 -0.85 -5.75 0 -5.05 0 -5.10 -1.10 -4.80 -0.65 0.15 -1.40 0.30 -1.75 0.30 -0.40 0 -0.50 0.55 -0.30 1.75 0.30 1.75 0.30 1.75 -1.65 1.75 -3.10 0.05 -4.05 1.25 -3.80 4.85 0.15 2.10 1.25 2.55 5.95 2.55 3.65 0 4.25 -0.10 3.50 -0.65z m14.20 0.10 c-0.30 -0.30 -0.55 -1.95 -0.55 -3.70 0 -3.25 -0.15 -3.45 -2.30 -2.85 -0.90 0.25 -1 0.55 -0.80 2.95 0.20 2.35 0.10 2.70 -0.85 3 -1.65 0.50 -2.05 -0.10 -2.05 -3.35 l0 -3 -1.60 0.30 c-1.90 0.40 -2.10 0.55 -1.60 1.35 0.20 0.35 0.45 1.65 0.50 2.85 0.05 1.25 0.40 2.40 0.70 2.60 1.05 0.65 9.20 0.50 8.55 -0.15z m11.55 -0.20 c0.50 -0.45 0.90 -1.05 0.90 -1.35 0 -0.30 -0.30 -0.20 -0.65 0.25 -0.80 1.05 -2.65 1.45 -3.50 0.75 -1 -0.75 -1.35 -2.70 -0.85 -4.10 0.55 -1.40 2.70 -1.65 4 -0.45 0.80 0.75 0.90 0.70 1.10 -0.40 0.20 -1.10 0.05 -1.15 -2.75 -1.25 -4 -0.15 -5.35 0.70 -5.35 3.40 0 2.70 1.35 4 4.10 4 1.20 0 2.45 -0.35 3 -0.85z m13.90 0.30 c0 -0.20 -0.20 -0.50 -0.45 -0.65 -0.20 -0.15 -0.40 -1.35 -0.40 -2.60 0 -2.80 -0.90 -3.70 -3.80 -3.70 -2.20 0 -3.85 0.75 -3.85 1.70 0 1.20 1.55 1.40 1.85 0.30 0.20 -0.80 0.60 -1 1.60 -0.90 2 0.25 1.55 1.45 -0.95 2.35 -2.20 0.80 -2.90 1.80 -2.30 3.30 0.15 0.50 1.30 0.65 4.25 0.65 2.25 0 4.05 -0.20 4.05 -0.45z m10.35 -0.30 c0.15 -0.40 -0.30 -0.55 -1.20 -0.50 -1.35 0.10 -1.40 0.05 -1.40 -2.40 0 -2.20 0.15 -2.50 1.15 -2.65 1.40 -0.20 1.45 -1.10 0.05 -1.10 -0.60 0 -1.15 -0.40 -1.30 -1 -0.35 -1.40 -1.95 -1.25 -2.95 0.20 -0.55 0.90 -0.65 1.50 -0.30 2.10 0.25 0.45 0.35 1.25 0.25 1.75 -0.15 0.50 0 1.70 0.35 2.70 0.60 1.75 0.65 1.80 2.90 1.65 1.25 -0.10 2.35 -0.40 2.45 -0.75z m9.65 0.40 c0 -0.25 -0.20 -0.55 -0.50 -0.65 -0.25 -0.05 -0.55 -1.45 -0.65 -3 -0.10 -1.60 -0.30 -3 -0.45 -3.15 -0.15 -0.15 -0.95 -0.10 -1.85 0.05 -1.15 0.25 -1.45 0.50 -1.10 0.85 0.90 0.90 0.65 4.90 -0.30 5.65 -0.80 0.60 -0.50 0.65 2 0.70 1.55 0 2.85 -0.20 2.85 -0.45z m11.70 -0.10 c1.40 -0.65 2 -2.40 1.55 -4.50 -0.40 -1.85 -1.55 -2.45 -4.70 -2.45 -3.15 0 -4.55 1.15 -4.55 3.75 0 2.50 1.45 3.75 4.25 3.75 1.20 0 2.75 -0.25 3.45 -0.55z m16.80 0.05 c0 -0.25 -0.35 -0.50 -0.75 -0.50 -0.50 0 -0.75 -0.80 -0.85 -3.10 l-0.15 -3.15 -3 -0.05 c-4.15 -0.10 -6.45 0.30 -5.80 0.95 0.90 0.90 0.65 4.90 -0.30 5.65 -0.75 0.55 0 0.65 5 0.70 3.55 0 5.85 -0.20 5.85 -0.50z m-215.60 -3.85 c-0.15 -0.75 -0.65 -0.90 -2.90 -0.90 -2.05 0 -2.75 0.20 -2.90 0.75 -0.10 0.60 0.50 0.80 2.95 0.90 2.70 0.15 3 0.05 2.85 -0.75z m185.50 -5.75 c-0.10 -0.75 -0.50 -1.15 -1.15 -1.15 -0.65 0 -1.05 0.40 -1.15 1.15 -0.15 0.90 0.05 1.10 1.15 1.10 1.10 0 1.30 -0.20 1.15 -1.10z"/>
  <path d="M139.90 201.75 c-0.85 -1.90 0 -4 1.60 -4 0.90 0 1.35 0.40 1.70 1.35 0.65 1.80 -0.30 3.90 -1.70 3.90 -0.60 0 -1.25 -0.50 -1.60 -1.25z"/>
  <path d="M174.30 201.45 c-0.45 -2.40 0.10 -3.95 1.45 -3.95 0.95 0 1.15 0.30 1.35 1.90 0.25 2.85 -0.05 3.60 -1.30 3.60 -0.90 0 -1.25 -0.35 -1.50 -1.55z"/>
  <path d="M222.50 202.35 c0 -0.70 1 -1.85 1.60 -1.85 0.20 0 0.40 0.55 0.40 1.25 0 0.90 -0.25 1.25 -1 1.25 -0.55 0 -1 -0.30 -1 -0.65z"/>
  <path d="M312.30 202.20 c-0.85 -2.25 -0.10 -4.70 1.45 -4.70 1.30 0 1.75 1.35 1.35 3.95 -0.15 1.20 -0.45 1.55 -1.35 1.55 -0.65 0 -1.30 -0.35 -1.45 -0.80z"/>
  <path d="M352.60 202.20 c0.15 -0.95 1.70 -2.05 2.15 -1.60 0.20 0.20 0.20 0.80 0 1.35 -0.40 1.25 -2.40 1.45 -2.15 0.25z"/>
  <path d="M385.85 202.65 c-0.45 -0.40 -0.45 -3.30 -0.05 -4.35 0.40 -1.05 2.50 -1.05 2.90 0 0.85 2.25 0.10 4.70 -1.40 4.70 -0.65 0 -1.30 -0.15 -1.45 -0.35z"/>
  <path d="M400.20 202.80 c-0.15 -0.35 -0.20 -1.65 -0.10 -2.85 0.10 -1.85 0.35 -2.25 1.30 -2.35 0.60 -0.10 1.10 0 1.15 0.25 0.05 0.75 0.05 4.40 0 5.05 -0.05 0.85 -2 0.75 -2.35 -0.10z"/>
  <path d="M126.25 129.45 l2 -2 0.15 1.30 c0.30 2.15 -0.20 2.75 -2.25 2.75 l-1.85 0 1.95 -2.05z"/>
 </g>
 <g fill="#000000">
  <path d="M97 324 l0 -252 163.50 0 163.50 0 0 252 0 252 -163.50 0 -163.50 0 0 -252z m325 0 l0 -250 -161.50 0 -161.50 0 0 250 0 250 161.50 0 161.50 0 0 -250z"/>
  <path d="M282.60 501.90 c-1.05 -1.05 -0.65 -1.45 1.20 -1.30 1.15 0.10 1.95 -0.10 2.05 -0.45 0.15 -0.45 -0.30 -0.65 -1.25 -0.65 -1.75 0 -3.10 -1.35 -3.10 -3.10 0 -1.90 1.45 -2.90 4.05 -2.75 l2.20 0.15 0.15 3.15 c0.20 4 -0.70 5.55 -3.05 5.55 -0.90 0 -1.90 -0.25 -2.25 -0.60z m3.30 -5.20 c0.15 -1.10 -1.05 -1.95 -1.95 -1.40 -0.55 0.30 -0.60 1.90 -0.10 2.40 0.65 0.65 1.90 0.05 2.05 -1z"/>
  <path d="M252.60 499.95 c-0.60 -0.25 -1.10 -0.75 -1.10 -1.20 0 -0.65 0.40 -0.75 1.90 -0.55 l1.85 0.30 -1.85 -0.85 c-2.05 -0.85 -2.55 -2.50 -1.20 -3.60 1.10 -0.90 3.50 -0.50 3.70 0.60 0.15 0.80 -0.05 0.90 -1.35 0.60 -1 -0.20 -1.55 -0.15 -1.55 0.20 0 0.30 0.30 0.55 0.70 0.55 0.40 0 1.20 0.40 1.80 0.90 0.95 0.75 1.05 1.10 0.60 1.95 -0.70 1.25 -2 1.65 -3.50 1.10z"/>
  <path d="M267 499.60 c-0.80 -0.40 -1.50 -0.90 -1.50 -1.15 0 -0.80 1.15 -1.05 2.25 -0.45 1.35 0.70 3.25 0.30 2.40 -0.55 -0.30 -0.30 -1.25 -0.90 -2.20 -1.35 -1.45 -0.70 -1.70 -1.10 -1.70 -2.60 0 -1.45 0.25 -1.80 1.40 -2.20 1.45 -0.55 3.90 0.05 4.20 1 0.25 0.80 -1.35 1.30 -2.15 0.65 -0.35 -0.30 -0.90 -0.40 -1.20 -0.20 -1.05 0.65 -0.45 1.60 1.45 2.15 2.20 0.70 2.95 2.20 1.80 3.90 -0.90 1.40 -2.85 1.75 -4.75 0.80z"/>
  <path d="M182.60 499.40 c-1.05 -1.05 -0.75 -2.05 0.55 -1.65 1.95 0.60 3.10 0.55 3.10 -0.20 0 -0.40 -0.65 -0.90 -1.40 -1.10 -2.05 -0.55 -2.85 -1.40 -2.85 -3 0 -2.25 3.15 -3.30 5.30 -1.75 0.75 0.60 0.85 0.85 0.30 1.40 -0.50 0.50 -0.80 0.50 -1.65 0 -0.55 -0.35 -1.20 -0.50 -1.45 -0.35 -1.05 0.65 -0.40 1.60 1.45 2.20 2.35 0.70 3 2.05 1.85 3.80 -0.65 0.95 -1.25 1.25 -2.70 1.25 -1.05 0 -2.15 -0.25 -2.50 -0.60z"/>
  <path d="M192.85 499.65 c-0.20 -0.15 -0.35 -1.20 -0.35 -2.25 0 -1.05 -0.20 -1.90 -0.50 -1.90 -0.85 0 -0.55 -1.50 0.50 -2.65 l1.05 -1.05 1.20 1.40 c1.25 1.50 1.25 2.30 -0.05 2.30 -0.95 0 -0.50 1.95 0.65 2.85 0.40 0.30 0.60 0.80 0.40 1.10 -0.35 0.60 -2.40 0.75 -2.90 0.20z"/>
  <path d="M199.80 499.20 c-0.15 -0.45 -0.30 -1.90 -0.30 -3.25 0 -2.10 0.15 -2.45 1 -2.45 0.85 0 1 0.35 1 2.50 0 1.40 0.10 2.50 0.20 2.50 1.25 0 1.80 -0.80 1.80 -2.80 0 -1.85 0.15 -2.20 1 -2.20 0.90 0 1 0.35 1 3.15 l0 3.15 -2.70 0.10 c-2.05 0.05 -2.80 -0.15 -3 -0.70z"/>
  <path d="M209.50 499 c-1.40 -2.55 0.05 -5.50 2.65 -5.50 1.10 0 1.35 -0.25 1.35 -1.30 0 -0.95 0.25 -1.25 0.90 -1.10 0.70 0.15 0.85 0.85 1 4.45 l0.15 4.25 -2.75 0.10 c-2.25 0.05 -2.90 -0.10 -3.30 -0.90z m3.40 -1.10 c0.70 -0.70 0.75 -1.40 0.20 -2.30 -0.65 -0.95 -2.10 -0.15 -2.10 1.10 0 1.75 0.80 2.30 1.90 1.20z"/>
  <path d="M219.80 499.20 c-1.80 -1.80 -0.45 -5.70 2 -5.70 1.55 0 3.20 1.45 3.20 2.80 0 1.10 -0.20 1.20 -2.30 1.20 -1.50 0 -2.15 0.20 -1.90 0.55 0.20 0.30 1 0.40 1.95 0.25 1.90 -0.40 2.75 0.40 1.30 1.15 -1.45 0.80 -3.35 0.65 -4.25 -0.25z m3.20 -3.70 c0 -0.25 -0.45 -0.50 -1 -0.50 -0.55 0 -1 0.25 -1 0.50 0 0.30 0.45 0.50 1 0.50 0.55 0 1 -0.20 1 -0.50z"/>
  <path d="M228.85 499.65 c-0.10 -0.25 -0.15 -1.60 -0.15 -3.05 l0.10 -2.70 2.60 -0.20 c3 -0.25 3.10 -0.10 3.25 3.60 0.10 2.15 -0.05 2.45 -0.90 2.45 -0.80 0 -1 -0.40 -1.15 -1.95 -0.15 -2.30 -0.30 -2.55 -1.35 -2.15 -0.50 0.20 -0.75 1 -0.75 2.35 0 1.40 -0.20 2 -0.70 2 -0.40 0 -0.85 -0.15 -0.95 -0.35z"/>
  <path d="M239.60 499.40 c-0.35 -0.35 -0.60 -1.30 -0.60 -2.15 0 -0.85 -0.25 -1.80 -0.55 -2.10 -0.40 -0.40 -0.30 -0.90 0.35 -1.85 1.05 -1.40 2.20 -1.70 2.20 -0.55 0 0.40 0.35 0.75 0.75 0.75 0.40 0 0.75 0.45 0.75 1 0 0.55 -0.35 1 -0.75 1 -0.45 0 -0.75 0.45 -0.75 1.25 0 0.70 0.35 1.40 0.75 1.55 0.40 0.20 0.75 0.60 0.75 1 0 0.85 -2.05 0.95 -2.90 0.10z"/>
  <path d="M276 496.70 c0 -2.85 0.10 -3.25 0.90 -3.10 0.70 0.15 0.90 0.80 1 3.30 0.15 2.85 0.05 3.10 -0.90 3.10 -0.90 0 -1 -0.30 -1 -3.30z"/>
  <path d="M292 496.90 l0 -3.15 2.50 -0.10 c2.90 -0.15 3.35 0.50 3.30 4.10 -0.05 1.45 -0.30 2.05 -0.90 2.15 -0.75 0.15 -0.90 -0.20 -0.90 -2.10 0 -1.95 -0.15 -2.30 -1 -2.30 -1 0 -1.10 0.15 -1.20 2.75 -0.05 1 -0.35 1.55 -0.90 1.65 -0.80 0.15 -0.90 -0.25 -0.90 -3z"/>
  <path d="M301.50 499 c-0.80 -1.50 0.20 -3 2 -3 0.85 0 1.50 -0.25 1.50 -0.55 0 -0.35 -0.55 -0.45 -1.55 -0.25 -1.25 0.25 -1.50 0.15 -1.35 -0.60 0.20 -1.15 3 -1.40 4.10 -0.35 0.50 0.55 0.80 1.70 0.80 3.30 l0 2.45 -2.50 0 c-1.95 0 -2.60 -0.20 -3 -1z m3.50 -0.75 c0 -0.45 -0.45 -0.75 -1.05 -0.75 -0.90 0 -0.95 0.10 -0.45 0.75 0.35 0.40 0.80 0.75 1.05 0.75 0.25 0 0.45 -0.35 0.45 -0.75z"/>
  <path d="M311.85 499.65 c-0.20 -0.15 -0.35 -1.20 -0.35 -2.25 0 -1.05 -0.20 -1.90 -0.50 -1.90 -0.85 0 -0.55 -1.50 0.50 -2.60 l1 -1.10 1 1.10 c1.20 1.25 1.30 2.60 0.20 2.60 -0.95 0 -0.50 1.95 0.65 2.85 0.40 0.30 0.60 0.80 0.40 1.10 -0.35 0.60 -2.40 0.75 -2.90 0.20z"/>
  <path d="M318.80 499.65 c-0.15 -0.15 -0.30 -1.65 -0.30 -3.25 0 -2.55 0.10 -2.90 1 -2.90 0.85 0 1 0.35 1 2.50 0 1.40 0.10 2.50 0.20 2.50 1.30 0 1.80 -0.80 1.80 -2.85 0 -1.85 0.15 -2.20 0.90 -2.05 0.65 0.15 0.90 0.75 1 3.20 l0.15 3 -2.70 0.10 c-1.50 0.05 -2.85 -0.10 -3.05 -0.25z"/>
  <path d="M328.50 496.90 l0 -3.20 1.70 -0.05 c2 -0.05 3 1.25 1.30 1.70 -0.55 0.15 -1.05 0.50 -1.05 0.85 -0.05 0.30 -0.10 1.20 -0.15 2.05 -0.05 1 -0.35 1.55 -0.90 1.65 -0.80 0.15 -0.90 -0.25 -0.90 -3z"/>
  <path d="M335.80 498.90 c-1.10 -1.55 -1 -3.20 0.20 -4.40 1.30 -1.30 3.20 -1.25 4.50 0.10 1.55 1.70 1.10 2.60 -1.40 2.80 -1.15 0.10 -2.10 0.40 -2.10 0.70 0 0.35 0.70 0.40 2 0.20 1.55 -0.25 2 -0.15 2 0.40 0 1.65 -4.10 1.80 -5.20 0.20z m3.70 -3.40 c0 -0.25 -0.55 -0.50 -1.25 -0.50 -0.70 0 -1.25 0.25 -1.25 0.50 0 0.30 0.55 0.50 1.25 0.50 0.70 0 1.25 -0.20 1.25 -0.50z"/>
  <path d="M246 494.55 c0 -0.30 0.25 -0.65 0.50 -0.80 0.35 -0.20 0.35 -0.60 0 -1.25 -0.75 -1.35 -0.65 -1.60 0.65 -1.40 1.25 0.15 1.75 2.05 0.85 3.20 -0.70 0.80 -2 0.95 -2 0.25z"/>
  <path d="M275.80 492.10 c-0.45 -0.70 0.60 -1.75 1.40 -1.45 1.15 0.45 1 1.85 -0.15 1.85 -0.55 0 -1.10 -0.20 -1.25 -0.40z"/>
  <path d="M317.30 488.65 c-0.05 -0.10 -32.50 -0.20 -72.10 -0.25 -39.55 -0.10 -84.40 -0.20 -99.60 -0.30 l-27.60 -0.10 0 -1.05 0 -1.10 45.65 0.35 c25.05 0.15 74.30 0.30 109.35 0.35 35.05 0 79.80 0.15 99.40 0.30 35.05 0.30 35.60 0.30 35.60 1.30 0 0.95 -0.40 1 -45.30 0.80 -24.90 -0.10 -45.35 -0.25 -45.40 -0.30z"/>
  <path d="M236.25 446.75 c-0.85 -0.80 -1.25 -1.75 -1.25 -2.95 0 -2.40 0.40 -3.25 2.05 -4.05 2.05 -1.05 3.70 -0.90 5.30 0.45 1.25 1.10 1.30 1.25 0.50 1.60 -0.50 0.15 -1.15 0.10 -1.50 -0.25 -0.75 -0.75 -3 -0.70 -3.75 0.05 -0.65 0.65 -0.80 2.85 -0.20 3.70 0.65 0.95 1.95 1.15 3.35 0.40 1.45 -0.75 2.25 -0.55 2.25 0.55 0 2 -4.90 2.40 -6.75 0.50z"/>
  <path d="M247.30 446.90 c-1.10 -1.55 -1 -3.20 0.20 -4.40 2.05 -2.05 5.50 -0.65 5.50 2.25 0 2.15 -1.10 3.25 -3.25 3.25 -1.20 0 -1.95 -0.35 -2.45 -1.10z m3.70 -2.20 c0 -0.95 -0.25 -1.20 -1.25 -1.20 -1 0 -1.25 0.25 -1.25 1.20 0 0.65 0.30 1.30 0.65 1.45 1.10 0.35 1.85 -0.20 1.85 -1.45z"/>
  <path d="M256.70 446.80 c-0.50 -2.15 0 -5.05 0.95 -5.20 0.70 -0.15 0.85 0.20 0.85 2.35 0 1.40 0.15 2.55 0.40 2.55 0.95 -0.05 1.55 -0.95 1.70 -2.75 0.10 -1.40 0.40 -2.05 1.05 -2.15 0.75 -0.15 0.85 0.25 0.85 3 l0 3.20 -2.75 0.10 c-2.45 0.05 -2.75 -0.05 -3.05 -1.10z"/>
  <path d="M266.50 444.85 l0 -3.10 2 -0.05 c1.65 -0.05 2 0.10 2 0.85 0 0.60 -0.35 0.95 -1 0.95 -0.85 0 -1 0.35 -1 2.25 0 1.90 -0.15 2.25 -1 2.25 -0.90 0 -1 -0.35 -1 -3.15z"/>
  <path d="M273.75 447.55 c-0.55 -0.90 0.25 -1.55 1.55 -1.25 1.65 0.40 1.50 -0.10 -0.30 -1.05 -1.55 -0.80 -1.95 -2.10 -0.90 -3.15 1.15 -1.15 4.95 -0.40 4.20 0.85 -0.20 0.30 -1 0.40 -1.80 0.20 -2.05 -0.40 -1.90 0.20 0.30 1.10 1.50 0.60 1.75 0.95 1.60 2.10 -0.15 1.25 -0.35 1.40 -2.25 1.55 -1.10 0.10 -2.20 -0.10 -2.40 -0.35z"/>
  <path d="M283.10 447.65 c-2.10 -0.85 -1.50 -5.40 0.80 -6 1.80 -0.45 3.80 0.80 4 2.50 0.15 1.30 0.10 1.35 -2.15 1.35 -1.55 0 -2.20 0.20 -1.95 0.55 0.20 0.30 1 0.40 2 0.20 1.30 -0.20 1.70 -0.10 1.70 0.40 0 1.15 -2.55 1.75 -4.40 1z m2.90 -4.15 c0 -0.25 -0.45 -0.50 -1 -0.50 -0.55 0 -1 0.25 -1 0.50 0 0.30 0.45 0.50 1 0.50 0.55 0 1 -0.20 1 -0.50z"/>
  <path d="M118 303.50 l0 -68.50 69.50 0 69.50 0 0 68.50 0 68.50 -69.50 0 -69.50 0 0 -68.50z m138 0 l0 -67.50 -68.50 0 -68.50 0 0 67.50 0 67.50 68.50 0 68.50 0 0 -67.50z"/>
  <path d="M281 323.50 l0 -24.50 65 0 65 0 0 24.50 0 24.50 -65 0 -65 0 0 -24.50z m129 0 l0 -23.50 -64 0 -64 0 0 23.50 0 23.50 64 0 64 0 0 -23.50z"/>
  <path d="M297.60 339.40 c-1.05 -1.05 -0.65 -1.45 1.15 -1.30 2.10 0.20 2.30 -0.70 0.25 -1.25 -2.70 -0.70 -2.50 -4.35 0.25 -4.35 1.65 0 2.75 0.50 2.75 1.25 0 0.50 -0.50 0.60 -1.75 0.40 -2.30 -0.35 -2.30 0.60 0 1.35 1.95 0.65 2.80 2.50 1.75 3.75 -0.75 0.90 -3.55 1 -4.40 0.15z"/>
  <path d="M305.50 339 c0 -0.75 0.25 -1 0.90 -0.90 0.45 0.10 0.85 0.50 0.85 0.90 0 0.40 -0.40 0.80 -0.85 0.90 -0.65 0.10 -0.90 -0.15 -0.90 -0.90z"/>
  <path d="M311.50 338.75 c0 -0.70 -0.45 -2.15 -1 -3.25 -0.55 -1.10 -1 -2.20 -1 -2.50 0 -1.05 1.05 -0.45 2 1.15 l1 1.60 0.60 -1.60 c0.35 -1 0.95 -1.65 1.50 -1.65 0.75 0 0.75 0.25 -0.35 2.65 -0.70 1.40 -1.25 3.10 -1.25 3.75 0 0.65 -0.30 1.10 -0.75 1.10 -0.45 0 -0.75 -0.45 -0.75 -1.25z"/>
  <path d="M317.50 339 c0 -0.75 0.25 -1 0.90 -0.90 0.45 0.10 0.85 0.50 0.85 0.90 0 0.40 -0.40 0.80 -0.85 0.90 -0.65 0.10 -0.90 -0.15 -0.90 -0.90z"/>
  <path d="M327.50 339.50 c0 -0.35 0.80 -1.50 1.75 -2.65 1.20 -1.40 1.60 -2.20 1.25 -2.55 -0.35 -0.35 -0.85 -0.35 -1.50 0.10 -0.85 0.50 -1 0.50 -1 -0.35 0 -1.70 3.15 -2.15 4 -0.60 0.60 1.15 0.25 2.40 -1.15 3.95 l-1 1.10 1.35 0 c0.90 0 1.30 0.25 1.20 0.65 -0.30 0.80 -4.90 1.15 -4.90 0.35z"/>
  <path d="M336.30 339.20 c-0.50 -0.45 -0.80 -1.65 -0.80 -2.95 0 -2.45 0.95 -3.75 2.70 -3.75 2.30 0 3.45 3.30 2.10 5.95 -0.95 1.75 -2.70 2.10 -4 0.75z m2.60 -3.10 c0.10 -1.55 -0.05 -2.10 -0.55 -2.10 -0.85 0 -1.35 1.05 -1.35 2.70 0 2.75 1.70 2.20 1.90 -0.60z"/>
  <path d="M343.75 339.50 c-0.15 -0.25 0.20 -1 0.80 -1.60 2.70 -2.90 3.10 -4.60 0.75 -3.50 -0.95 0.45 -1.25 0.40 -1.50 -0.15 -0.30 -0.90 1.35 -1.85 2.80 -1.65 1.90 0.30 2.30 1.70 1 3.90 -1.10 1.95 -1.10 2 -0.10 2 0.55 0 1 0.35 1 0.75 0 0.55 -0.60 0.75 -2.20 0.75 -1.25 0 -2.40 -0.20 -2.55 -0.50z"/>
  <path d="M354.50 339.05 c0 -0.80 -0.30 -0.95 -1.55 -0.80 -1.50 0.20 -1.55 0.15 -1.30 -1.40 0.45 -2.65 1.30 -4.35 2.15 -4.35 0.55 0 0.70 0.25 0.45 0.90 -0.15 0.45 -0.45 1.55 -0.55 2.35 l-0.25 1.50 0.85 -1.10 c0.95 -1.30 1.70 -1.50 1.70 -0.45 0 0.40 0.25 0.80 0.60 0.90 0.45 0.15 0.45 0.60 -0.05 1.80 -0.75 1.75 -2.05 2.15 -2.05 0.65z"/>
  <path d="M366 339.35 c0 -0.40 0.70 -1.45 1.50 -2.35 2 -2.15 2 -3.20 -0.05 -2.75 -1.15 0.25 -1.50 0.20 -1.35 -0.30 0.35 -1.05 1.70 -1.60 3.05 -1.25 1.10 0.25 1.35 0.60 1.35 1.85 0 0.80 -0.45 2 -1.05 2.60 l-1 1.10 1.05 0.25 c1.95 0.45 1.30 1.25 -1.10 1.40 -1.85 0.10 -2.40 0 -2.40 -0.55z"/>
  <path d="M375.10 339.60 c-1.75 -1.15 -1.45 -6.25 0.40 -6.85 1.45 -0.45 2.90 0.15 3.25 1.35 0.55 1.65 0.40 4.35 -0.25 5.15 -0.70 0.80 -2.35 0.95 -3.40 0.35z m2.30 -3.20 c-0.20 -2.55 -1.55 -3.05 -1.80 -0.75 -0.20 1.85 0.20 2.85 1.15 2.85 0.65 0 0.75 -0.45 0.65 -2.10z"/>
  <path d="M382 339.55 c0 -0.25 0.80 -1.40 1.75 -2.55 1.95 -2.35 1.90 -3.10 -0.25 -2.65 -1.70 0.30 -1.85 0.05 -0.70 -1.05 1.05 -1.10 3.05 -1 3.70 0.15 0.75 1.40 0.65 1.80 -0.80 3.50 l-1.30 1.55 1.30 0 c0.80 0 1.30 0.30 1.30 0.75 0 0.55 -0.60 0.75 -2.50 0.75 -1.35 0 -2.50 -0.20 -2.50 -0.45z"/>
  <path d="M390.55 339.55 c-0.90 -0.60 0.30 -1.30 1.85 -1.10 0.90 0.10 1.15 -0.05 1 -0.80 -0.10 -0.65 -0.60 -0.90 -1.65 -0.90 -1.40 0 -1.50 -0.15 -1.65 -2.15 l-0.15 -2.15 2.40 0.15 c2.35 0.15 3.25 1 1.35 1.30 -2.25 0.35 -2.45 0.70 -0.70 1.25 1.50 0.50 1.75 0.85 1.90 2.30 0.10 1 -0.10 1.85 -0.50 2.10 -0.85 0.55 -2.95 0.55 -3.85 0z"/>
  <path d="M360 336.70 c0 -0.55 0.40 -0.70 1.60 -0.60 2.30 0.20 2.45 1.40 0.20 1.40 -1.30 0 -1.80 -0.20 -1.80 -0.80z"/>
  <path d="M323.35 328.65 c-0.20 -0.15 -0.35 -0.60 -0.35 -1 0 -0.55 0.25 -0.55 1 -0.15 1.05 0.55 2 0.30 2 -0.55 0 -0.25 -0.50 -0.45 -1.15 -0.45 -1.50 0 -2.35 -0.90 -2.35 -2.55 0 -1.80 1.05 -2.55 3.30 -2.30 l1.95 0.20 -0.05 3.10 c0 2.15 -0.25 3.25 -0.75 3.60 -0.80 0.50 -3.15 0.60 -3.60 0.10z m2.65 -4.65 c0 -0.65 -0.35 -1 -1 -1 -0.65 0 -1 0.35 -1 1 0 0.65 0.35 1 1 1 0.65 0 1 -0.35 1 -1z"/>
  <path d="M305 326.35 c0 -0.35 0.50 -2 1.15 -3.60 1.50 -3.90 2.65 -4.05 3.85 -0.50 1.65 4.80 1.65 4.75 0.75 4.75 -0.40 0 -0.90 -0.35 -1.05 -0.75 -0.20 -0.40 -0.90 -0.75 -1.70 -0.75 -0.80 0 -1.50 0.35 -1.70 0.75 -0.35 0.90 -1.30 1 -1.30 0.10z m3.80 -3.15 c-0.15 -0.45 -0.30 -1.05 -0.30 -1.35 0 -0.80 -1 0.70 -1 1.55 0 0.30 0.35 0.60 0.80 0.60 0.55 0 0.70 -0.25 0.50 -0.80z"/>
  <path d="M314.80 326.60 c-0.50 -0.80 -0.75 -3.90 -0.35 -4.55 0.70 -1.10 1.55 -0.15 1.55 1.75 0 1.20 0.25 1.70 0.75 1.70 0.55 0 0.75 -0.55 0.75 -2.05 0 -1.65 0.15 -2 0.90 -1.85 0.65 0.15 0.85 0.70 0.85 2.65 l0 2.50 -2.10 0.10 c-1.15 0.10 -2.20 -0.05 -2.35 -0.25z"/>
  <path d="M331.20 325.80 c-0.40 -1.70 -0.05 -3.95 0.70 -4.20 0.40 -0.10 0.60 0.45 0.60 1.85 0 1.70 0.15 2.05 1 2.05 0.85 0 1 -0.35 1 -2.05 0 -3 1.20 -2.25 1.40 0.90 l0.15 2.50 -2.25 0.05 c-2 0.05 -2.35 -0.10 -2.60 -1.10z"/>
  <path d="M339.50 326.20 c0 -0.55 0.25 -0.70 0.80 -0.50 0.45 0.15 1.05 0.15 1.35 -0.05 0.35 -0.20 0.10 -0.45 -0.65 -0.65 -0.90 -0.20 -1.30 -0.70 -1.40 -1.65 -0.20 -1.55 0.75 -2.15 2.70 -1.65 1.70 0.45 1.25 1.60 -0.60 1.45 l-1.45 -0.10 1.65 0.70 c1.65 0.75 1.80 1.10 1.30 2.45 -0.45 1.10 -3.70 1.10 -3.70 0z"/>
  <path d="M347.35 326.65 c-0.20 -0.15 -0.35 -1.05 -0.35 -1.95 0 -0.90 -0.25 -1.70 -0.55 -1.80 -0.40 -0.15 -0.40 -0.50 0.10 -1.30 0.85 -1.35 1.20 -1.35 2.50 -0.15 0.90 0.85 0.95 1 0.25 1.70 -1 0.95 -1 1.55 -0.05 2.35 0.40 0.35 0.60 0.80 0.45 1.05 -0.30 0.55 -1.90 0.60 -2.35 0.10z"/>
  <path d="M358 326.35 c0 -0.40 0.70 -1.45 1.50 -2.35 0.85 -0.90 1.50 -1.90 1.50 -2.30 0 -0.50 -0.40 -0.60 -1.50 -0.35 -1.55 0.30 -1.95 -0.20 -0.90 -1.25 0.70 -0.70 2.35 -0.75 3.35 -0.15 1 0.65 0.80 2.80 -0.40 4.15 l-1.10 1.15 1.05 0.25 c1.95 0.45 1.30 1.25 -1.10 1.40 -1.85 0.10 -2.40 0 -2.40 -0.55z"/>
  <path d="M366.80 326.20 c-0.50 -0.45 -0.80 -1.65 -0.80 -2.95 0 -2.35 0.95 -3.75 2.50 -3.75 1.90 0 2.85 1.95 2.50 5.25 -0.25 2.20 -2.65 3.05 -4.20 1.45z m2.60 -2.80 c-0.20 -2.55 -1.55 -3.05 -1.80 -0.75 -0.20 1.85 0.20 2.85 1.15 2.85 0.65 0 0.75 -0.45 0.65 -2.10z"/>
  <path d="M374 326.45 c0 -0.30 0.80 -1.45 1.75 -2.55 1.95 -2.30 1.90 -3 -0.30 -2.55 -1.20 0.25 -1.40 0.15 -1.15 -0.55 0.40 -1.05 2.60 -1.60 3.65 -0.95 1.20 0.75 1.25 2.10 0.10 3.70 -1.30 1.75 -1.30 1.95 -0.05 1.95 0.55 0 1 0.35 1 0.75 0 0.55 -0.60 0.75 -2.50 0.75 -1.45 0 -2.50 -0.20 -2.50 -0.55z"/>
  <path d="M382.55 326.55 c-0.55 -0.35 -0.55 -0.50 0 -0.85 0.40 -0.20 1.15 -0.40 1.70 -0.45 0.55 0 1.05 -0.40 1.15 -0.90 0.15 -0.80 -0.05 -0.85 -1.60 -0.55 l-1.80 0.30 0 -2.30 0 -2.35 2.40 0.15 c2.40 0.15 3.05 1 1 1.30 -1.55 0.25 -2.40 1.10 -1.10 1.10 0.55 0 1.40 0.30 1.90 0.65 1.10 0.80 1.25 3.25 0.25 3.90 -0.90 0.55 -3 0.55 -3.90 0z"/>
  <path d="M312.75 313.40 c-0.10 -0.35 -0.65 -2 -1.20 -3.60 -0.55 -1.65 -0.95 -3.10 -0.80 -3.20 0.60 -0.65 1.70 0.60 2.30 2.60 0.35 1.20 0.80 2.15 1 2.05 0.15 -0.15 0.60 -1.25 0.95 -2.50 0.45 -1.60 0.90 -2.25 1.55 -2.25 0.80 0 0.80 0.25 -0.40 3.75 -0.95 2.95 -1.45 3.75 -2.20 3.75 -0.55 0 -1.05 -0.30 -1.20 -0.60z"/>
  <path d="M319.65 313.20 c-0.40 -1.10 0.45 -2.35 1.90 -2.75 1.15 -0.35 1.15 -0.35 -0.20 -0.40 -2.10 -0.05 -1.40 -1.30 0.70 -1.30 1.70 0 1.70 0 1.85 2.65 l0.15 2.60 -2.05 0 c-1.40 0 -2.15 -0.25 -2.35 -0.80z m2.75 -0.75 c-0.10 -0.30 -0.40 -0.50 -0.65 -0.50 -0.25 0 -0.55 0.20 -0.65 0.50 -0.10 0.30 0.20 0.55 0.65 0.55 0.45 0 0.75 -0.25 0.65 -0.55z"/>
  <path d="M327.85 313.65 c-0.20 -0.15 -0.35 -1.85 -0.35 -3.75 0 -2.70 0.15 -3.40 0.75 -3.40 0.55 0 0.75 0.65 0.75 2.65 0 1.40 0.15 3.10 0.30 3.75 0.25 0.75 0.10 1.10 -0.40 1.10 -0.40 0 -0.90 -0.15 -1.05 -0.35z"/>
  <path d="M332.50 311.25 c0 -2.10 0.15 -2.75 0.75 -2.75 0.60 0 0.75 0.65 0.75 2.75 0 2.10 -0.15 2.75 -0.75 2.75 -0.60 0 -0.75 -0.65 -0.75 -2.75z"/>
  <path d="M337.75 313.50 c-0.55 -0.90 -0.40 -3.45 0.25 -4.25 0.35 -0.40 1.15 -0.75 1.75 -0.75 0.70 0 1.25 -0.35 1.40 -1 0.15 -0.55 0.50 -1 0.80 -1 0.35 0 0.55 1.35 0.55 3.75 l0 3.75 -2.20 0 c-1.25 0 -2.40 -0.25 -2.55 -0.50z m3.25 -2.25 c0 -0.90 -0.25 -1.25 -1 -1.25 -0.75 0 -1 0.35 -1 1.25 0 0.90 0.25 1.25 1 1.25 0.75 0 1 -0.35 1 -1.25z"/>
  <path d="M351.20 312.80 c-0.40 -1.65 -0.05 -3.95 0.65 -4.15 0.35 -0.15 0.65 0.50 0.75 1.70 0.10 1.30 0.40 1.90 0.90 1.90 0.50 0 0.80 -0.60 0.90 -1.90 0.25 -2.80 1.30 -2.05 1.50 1 l0.15 2.50 -2.25 0.05 c-2 0.05 -2.35 -0.10 -2.60 -1.10z"/>
  <path d="M359.50 311.35 l0 -2.65 1.90 -0.05 c2.50 -0.10 3.10 0.55 3.10 3.20 0 1.85 -0.15 2.20 -0.85 2.05 -0.65 -0.10 -0.90 -0.65 -0.90 -1.90 0 -2.50 -1.45 -2.40 -1.65 0.15 -0.10 1.20 -0.40 1.85 -0.90 1.85 -0.50 0 -0.70 -0.70 -0.70 -2.65z"/>
  <path d="M368.30 313.20 c-0.15 -0.45 -0.30 -1.30 -0.30 -1.90 0 -0.60 -0.25 -1.35 -0.50 -1.60 -0.35 -0.35 -0.20 -0.80 0.50 -1.45 1 -0.90 1.05 -0.90 2.10 0.15 1.10 1.05 1.10 1.10 0.15 1.80 -0.90 0.65 -0.90 0.75 -0.10 1.95 1.10 1.70 1.10 1.85 -0.35 1.85 -0.65 0 -1.35 -0.35 -1.50 -0.80z"/>
  <path d="M374.35 313.65 c-0.40 -0.80 -0.35 -3.90 0.10 -4.60 0.80 -1.25 1.55 -0.05 1.55 2.50 0 1.80 -0.20 2.45 -0.70 2.45 -0.40 0 -0.85 -0.15 -0.95 -0.35z"/>
  <path d="M379.25 312.40 c-0.45 -2.35 -0.10 -5.55 0.60 -5.75 0.70 -0.25 1.05 0.85 1.25 4.35 0.10 2.25 0 2.75 -0.70 2.90 -0.60 0.10 -0.95 -0.30 -1.15 -1.50z"/>
  <path d="M332.50 307.30 c0 -0.90 0.80 -1.45 1.50 -1.05 0.65 0.40 0.05 1.75 -0.80 1.75 -0.40 0 -0.70 -0.30 -0.70 -0.70z"/>
  <path d="M374.35 307.70 c-0.70 -0.75 -0.30 -1.70 0.70 -1.70 0.70 0 0.95 0.25 0.85 0.85 -0.15 0.90 -1 1.35 -1.55 0.85z"/>
 </g>
 <g fill="#d70d0d">
  <path d="M156 170.35 c-2.10 -2 -7.55 -7.15 -12.15 -11.55 l-8.35 -7.90 1.35 -2.60 c2.70 -5.05 9.75 -15.30 12.85 -18.65 1.75 -1.85 4.45 -4.15 6 -5.10 2.80 -1.65 2.90 -1.70 4.45 -0.90 3.05 1.50 7.25 5.30 10.60 9.55 3.05 3.95 10.90 16.40 11.50 18.30 0.30 0.95 -2 3.25 -20.25 20.35 l-2.25 2.10 -3.75 -3.60z"/>
  <path d="M186.25 146.90 c-0.45 -1.40 -8.45 -22.05 -13.80 -35.60 l-1 -2.40 2.50 2.20 c1.40 1.25 7.05 6.60 12.65 11.95 5.60 5.30 10.75 10.20 11.50 10.90 0.75 0.75 1.40 1.55 1.40 1.80 0 0.50 -11.65 11.80 -12.55 12.15 -0.20 0.10 -0.55 -0.35 -0.70 -1z"/>
  <path d="M125.55 141.40 c-3.05 -2.85 -5.55 -5.40 -5.55 -5.75 0 -0.35 0.30 -0.80 0.70 -1 0.40 -0.20 4.95 -4.50 10.15 -9.45 10.10 -9.75 13.65 -13 13.65 -12.50 0 0.15 -1.45 3.95 -3.20 8.40 -1.75 4.50 -4.70 11.95 -6.55 16.65 -1.80 4.65 -3.40 8.55 -3.50 8.65 -0.10 0.10 -2.65 -2.15 -5.70 -5z"/>
 </g>
</svg>